M48
; DRILL file {KiCad (6.0.8-1)-1} date 
; FORMAT={-:-/ absolute / metric / decimal}
; #@! TF.CreationDate,2022-10-31T15:31:12+09:00
; #@! TF.GenerationSoftware,Kicad,Pcbnew,(6.0.8-1)-1
; #@! TF.FileFunction,MixedPlating,1,2
FMAT,2
METRIC
; #@! TA.AperFunction,Plated,PTH,ViaDrill
T1C0.300
; #@! TA.AperFunction,Plated,PTH,ComponentDrill
T2C0.800
; #@! TA.AperFunction,Plated,PTH,ComponentDrill
T3C1.000
%
G90
G05
T1
X1.27Y65.405
X1.27Y1.27
X13.97Y26.67
X13.97Y24.13
X14.605Y62.23
X16.51Y24.13
X18.415Y62.23
X20.955Y62.23
X24.765Y62.23
X32.385Y59.69
X32.385Y1.27
T2
X3.81Y57.15
X3.81Y46.99
X3.81Y38.695
X3.81Y36.195
X3.81Y31.73
X3.81Y29.23
X12.065Y62.23
X12.065Y59.69
X12.065Y57.15
X12.065Y54.61
X12.065Y52.07
X12.065Y49.53
X12.065Y46.99
X12.065Y44.45
X12.065Y41.91
X12.065Y39.37
X12.065Y36.83
X12.065Y34.29
X12.065Y31.75
X12.065Y29.21
X12.065Y26.67
X12.065Y24.13
X12.065Y21.59
X12.065Y19.05
X12.065Y16.51
X12.065Y13.97
X12.065Y11.43
X12.065Y8.89
X12.065Y6.35
X12.065Y3.81
X27.305Y62.23
X27.305Y59.69
X27.305Y57.15
X27.305Y54.61
X27.305Y52.07
X27.305Y49.53
X27.305Y46.99
X27.305Y44.45
X27.305Y41.91
X27.305Y39.37
X27.305Y36.83
X27.305Y34.29
X27.305Y31.75
X27.305Y29.21
X27.305Y26.67
X27.305Y24.13
X27.305Y21.59
X27.305Y19.05
X27.305Y16.51
X27.305Y13.97
X27.305Y11.43
X27.305Y8.89
X27.305Y6.35
X27.305Y3.81
T3
X9.525Y57.15
X9.525Y54.61
X9.525Y52.07
X9.525Y49.53
X9.525Y46.99
X9.525Y44.45
X9.525Y41.91
X9.525Y39.37
X9.525Y36.83
X9.525Y34.29
X9.525Y31.75
X9.525Y29.21
X9.525Y26.67
X9.525Y24.13
X9.525Y21.59
X9.525Y19.05
X9.525Y16.51
X9.525Y13.97
X9.525Y11.43
X9.525Y8.89
X29.845Y57.15
X29.845Y54.61
X29.845Y52.07
X29.845Y49.53
X29.845Y46.99
X29.845Y44.45
X29.845Y41.91
X29.845Y39.37
X29.845Y36.83
X29.845Y34.29
X29.845Y31.75
X29.845Y29.21
X29.845Y26.67
X29.845Y24.13
X29.845Y21.59
X29.845Y19.05
X29.845Y16.51
X29.845Y13.97
X29.845Y11.43
X29.845Y8.89
X31.115Y64.765
X31.115Y62.225
T0
M30
