G04 #@! TF.GenerationSoftware,KiCad,Pcbnew,(6.0.8-1)-1*
G04 #@! TF.CreationDate,2022-10-31T15:31:04+09:00*
G04 #@! TF.ProjectId,MEZ68008,4d455a36-3830-4303-982e-6b696361645f,A*
G04 #@! TF.SameCoordinates,PX5f5e100PY8f0d180*
G04 #@! TF.FileFunction,Copper,L1,Top*
G04 #@! TF.FilePolarity,Positive*
%FSLAX46Y46*%
G04 Gerber Fmt 4.6, Leading zero omitted, Abs format (unit mm)*
G04 Created by KiCad (PCBNEW (6.0.8-1)-1) date 2022-10-31 15:31:04*
%MOMM*%
%LPD*%
G01*
G04 APERTURE LIST*
G04 #@! TA.AperFunction,ComponentPad*
%ADD10O,1.600000X1.600000*%
G04 #@! TD*
G04 #@! TA.AperFunction,ComponentPad*
%ADD11C,1.600000*%
G04 #@! TD*
G04 #@! TA.AperFunction,ComponentPad*
%ADD12R,1.600000X1.600000*%
G04 #@! TD*
G04 #@! TA.AperFunction,ComponentPad*
%ADD13R,1.700000X1.700000*%
G04 #@! TD*
G04 #@! TA.AperFunction,ComponentPad*
%ADD14O,1.700000X1.700000*%
G04 #@! TD*
G04 #@! TA.AperFunction,ViaPad*
%ADD15C,0.605000*%
G04 #@! TD*
G04 #@! TA.AperFunction,Conductor*
%ADD16C,0.152400*%
G04 #@! TD*
G04 APERTURE END LIST*
D10*
X3810000Y46990000D03*
D11*
X3810000Y57150000D03*
D12*
X3810000Y36195000D03*
D11*
X3810000Y38695000D03*
D12*
X12065000Y62230000D03*
D10*
X12065000Y59690000D03*
X12065000Y57150000D03*
X12065000Y54610000D03*
X12065000Y52070000D03*
X12065000Y49530000D03*
X12065000Y46990000D03*
X12065000Y44450000D03*
X12065000Y41910000D03*
X12065000Y39370000D03*
X12065000Y36830000D03*
X12065000Y34290000D03*
X12065000Y31750000D03*
X12065000Y29210000D03*
X12065000Y26670000D03*
X12065000Y24130000D03*
X12065000Y21590000D03*
X12065000Y19050000D03*
X12065000Y16510000D03*
X12065000Y13970000D03*
X12065000Y11430000D03*
X12065000Y8890000D03*
X12065000Y6350000D03*
X12065000Y3810000D03*
X27305000Y3810000D03*
X27305000Y6350000D03*
X27305000Y8890000D03*
X27305000Y11430000D03*
X27305000Y13970000D03*
X27305000Y16510000D03*
X27305000Y19050000D03*
X27305000Y21590000D03*
X27305000Y24130000D03*
X27305000Y26670000D03*
X27305000Y29210000D03*
X27305000Y31750000D03*
X27305000Y34290000D03*
X27305000Y36830000D03*
X27305000Y39370000D03*
X27305000Y41910000D03*
X27305000Y44450000D03*
X27305000Y46990000D03*
X27305000Y49530000D03*
X27305000Y52070000D03*
X27305000Y54610000D03*
X27305000Y57150000D03*
X27305000Y59690000D03*
X27305000Y62230000D03*
D13*
X31115000Y62225000D03*
D14*
X31115000Y64765000D03*
D11*
X3810000Y31730000D03*
X3810000Y29230000D03*
D13*
X29845000Y57150000D03*
D14*
X29845000Y54610000D03*
X29845000Y52070000D03*
X29845000Y49530000D03*
X29845000Y46990000D03*
X29845000Y44450000D03*
X29845000Y41910000D03*
X29845000Y39370000D03*
X29845000Y36830000D03*
X29845000Y34290000D03*
X29845000Y31750000D03*
X29845000Y29210000D03*
X29845000Y26670000D03*
X29845000Y24130000D03*
X29845000Y21590000D03*
X29845000Y19050000D03*
X29845000Y16510000D03*
X29845000Y13970000D03*
X29845000Y11430000D03*
X29845000Y8890000D03*
D13*
X9525000Y57150000D03*
D14*
X9525000Y54610000D03*
X9525000Y52070000D03*
X9525000Y49530000D03*
X9525000Y46990000D03*
X9525000Y44450000D03*
X9525000Y41910000D03*
X9525000Y39370000D03*
X9525000Y36830000D03*
X9525000Y34290000D03*
X9525000Y31750000D03*
X9525000Y29210000D03*
X9525000Y26670000D03*
X9525000Y24130000D03*
X9525000Y21590000D03*
X9525000Y19050000D03*
X9525000Y16510000D03*
X9525000Y13970000D03*
X9525000Y11430000D03*
X9525000Y8890000D03*
D15*
X1270000Y65405000D03*
X24765000Y62230000D03*
X13970000Y24130000D03*
X20955000Y62230000D03*
X18415000Y62230000D03*
X14605000Y62230000D03*
X13970000Y26670000D03*
X32385000Y59690000D03*
X1270000Y1270000D03*
X16510000Y24130000D03*
X32385000Y1270000D03*
D16*
X26260800Y43983100D02*
X26260800Y62665900D01*
X27305000Y39370000D02*
X27305000Y41910000D01*
X31115000Y62225000D02*
X30036100Y62225000D01*
X26898400Y63303500D02*
X28957600Y63303500D01*
X28957600Y63303500D02*
X30036100Y62225000D01*
X27305000Y42938900D02*
X26260800Y43983100D01*
X27305000Y41910000D02*
X27305000Y42938900D01*
X26260800Y62665900D02*
X26898400Y63303500D01*
X9525000Y56071100D02*
X9659900Y56071100D01*
X12065000Y41910000D02*
X12065000Y42938900D01*
X9525000Y57150000D02*
X9525000Y56071100D01*
X10909100Y44094800D02*
X12065000Y42938900D01*
X10909100Y54821900D02*
X10909100Y44094800D01*
X9659900Y56071100D02*
X10909100Y54821900D01*
X9636800Y53531100D02*
X9525000Y53531100D01*
X12065000Y40398900D02*
X10603900Y41860000D01*
X10603900Y52564000D02*
X9636800Y53531100D01*
X10603900Y41860000D02*
X10603900Y52564000D01*
X9525000Y54610000D02*
X9525000Y53531100D01*
X12065000Y39370000D02*
X12065000Y40398900D01*
X9525000Y45911100D02*
X9390100Y45911100D01*
X9268600Y38100000D02*
X9786000Y38100000D01*
X8405800Y38962800D02*
X9268600Y38100000D01*
X8405800Y44926800D02*
X8405800Y38962800D01*
X12065000Y29210000D02*
X12065000Y30238900D01*
X10909100Y31394800D02*
X12065000Y30238900D01*
X10909100Y36976900D02*
X10909100Y31394800D01*
X9390100Y45911100D02*
X8405800Y44926800D01*
X9786000Y38100000D02*
X10909100Y36976900D01*
X9525000Y46990000D02*
X9525000Y45911100D01*
X9660000Y40831100D02*
X10603900Y39887200D01*
X12065000Y6350000D02*
X12065000Y7378900D01*
X13107800Y37251000D02*
X13107800Y8421700D01*
X10603900Y39887200D02*
X10603900Y39375100D01*
X12258800Y38100000D02*
X13107800Y37251000D01*
X9525000Y40831100D02*
X9660000Y40831100D01*
X13107800Y8421700D02*
X12065000Y7378900D01*
X11879000Y38100000D02*
X12258800Y38100000D01*
X10603900Y39375100D02*
X11879000Y38100000D01*
X9525000Y41910000D02*
X9525000Y40831100D01*
X8443600Y13504400D02*
X9248000Y12700000D01*
X12065000Y8890000D02*
X12065000Y9918900D01*
X8443600Y34804600D02*
X8443600Y13504400D01*
X10830300Y11153600D02*
X12065000Y9918900D01*
X9813800Y12700000D02*
X10830300Y11683500D01*
X9248000Y12700000D02*
X9813800Y12700000D01*
X9390100Y35751100D02*
X8443600Y34804600D01*
X9525000Y35751100D02*
X9390100Y35751100D01*
X9525000Y36830000D02*
X9525000Y35751100D01*
X10830300Y11683500D02*
X10830300Y11153600D01*
X9525000Y34290000D02*
X9525000Y33211100D01*
X10603900Y13920000D02*
X12065000Y12458900D01*
X9660000Y33211100D02*
X10603900Y32267200D01*
X12065000Y11430000D02*
X12065000Y12458900D01*
X9525000Y33211100D02*
X9660000Y33211100D01*
X10603900Y32267200D02*
X10603900Y13920000D01*
X29710000Y12508900D02*
X28766100Y13452800D01*
X27305000Y44450000D02*
X27305000Y43421100D01*
X28460900Y24048900D02*
X28460900Y42265200D01*
X28766100Y13452800D02*
X28766100Y23743700D01*
X29845000Y12508900D02*
X29710000Y12508900D01*
X29845000Y11430000D02*
X29845000Y12508900D01*
X28766100Y23743700D02*
X28460900Y24048900D01*
X28460900Y42265200D02*
X27305000Y43421100D01*
X30924000Y58159100D02*
X27882000Y61201100D01*
X29845000Y36830000D02*
X29845000Y37908900D01*
X27305000Y62230000D02*
X27305000Y61201100D01*
X29845000Y37908900D02*
X29979900Y37908900D01*
X30924000Y38853000D02*
X30924000Y58159100D01*
X29979900Y37908900D02*
X30924000Y38853000D01*
X27882000Y61201100D02*
X27305000Y61201100D01*
X28766100Y54660000D02*
X27305000Y56121100D01*
X29845000Y32828900D02*
X29710000Y32828900D01*
X29710000Y32828900D02*
X28766100Y33772800D01*
X28766100Y33772800D02*
X28766100Y54660000D01*
X29845000Y31750000D02*
X29845000Y32828900D01*
X27305000Y57150000D02*
X27305000Y56121100D01*
X29733200Y9968900D02*
X29845000Y9968900D01*
X28333900Y11368200D02*
X29733200Y9968900D01*
X27305000Y16510000D02*
X27305000Y15481100D01*
X28333900Y14452200D02*
X28333900Y11368200D01*
X29845000Y8890000D02*
X29845000Y9968900D01*
X27305000Y15481100D02*
X28333900Y14452200D01*
X19355200Y33108700D02*
X27305000Y25158900D01*
X31115000Y64225600D02*
X20294900Y64225600D01*
X19355200Y63285900D02*
X19355200Y33108700D01*
X31115000Y64765000D02*
X31115000Y64225600D01*
X9945900Y63285900D02*
X3810000Y57150000D01*
X19355200Y63285900D02*
X9945900Y63285900D01*
X20294900Y64225600D02*
X19355200Y63285900D01*
X27305000Y24130000D02*
X27305000Y25158900D01*
G04 #@! TA.AperFunction,Conductor*
G36*
X33442121Y66479998D02*
G01*
X33488614Y66426342D01*
X33500000Y66374000D01*
X33500000Y626000D01*
X33479998Y557879D01*
X33426342Y511386D01*
X33374000Y500000D01*
X626000Y500000D01*
X557879Y520002D01*
X511386Y573658D01*
X500000Y626000D01*
X500000Y28143938D01*
X3088493Y28143938D01*
X3097789Y28131923D01*
X3148994Y28096069D01*
X3158489Y28090586D01*
X3355947Y27998510D01*
X3366239Y27994764D01*
X3576688Y27938375D01*
X3587481Y27936472D01*
X3804525Y27917483D01*
X3815475Y27917483D01*
X4032519Y27936472D01*
X4043312Y27938375D01*
X4253761Y27994764D01*
X4264053Y27998510D01*
X4461511Y28090586D01*
X4471006Y28096069D01*
X4523048Y28132509D01*
X4531424Y28142988D01*
X4524356Y28156434D01*
X3822812Y28857978D01*
X3808868Y28865592D01*
X3807035Y28865461D01*
X3800420Y28861210D01*
X3094923Y28155713D01*
X3088493Y28143938D01*
X500000Y28143938D01*
X500000Y29224525D01*
X2497483Y29224525D01*
X2516472Y29007481D01*
X2518375Y28996688D01*
X2574764Y28786239D01*
X2578510Y28775947D01*
X2670586Y28578489D01*
X2676069Y28568994D01*
X2712509Y28516952D01*
X2722988Y28508576D01*
X2736434Y28515644D01*
X3437978Y29217188D01*
X3444356Y29228868D01*
X4174408Y29228868D01*
X4174539Y29227035D01*
X4178790Y29220420D01*
X4884287Y28514923D01*
X4896062Y28508493D01*
X4908077Y28517789D01*
X4943931Y28568994D01*
X4949414Y28578489D01*
X5041490Y28775947D01*
X5045236Y28786239D01*
X5101625Y28996688D01*
X5103528Y29007481D01*
X5122517Y29224525D01*
X5122517Y29235475D01*
X5103528Y29452519D01*
X5101625Y29463312D01*
X5045236Y29673761D01*
X5041490Y29684053D01*
X4949414Y29881511D01*
X4943931Y29891006D01*
X4907491Y29943048D01*
X4897012Y29951424D01*
X4883566Y29944356D01*
X4182022Y29242812D01*
X4174408Y29228868D01*
X3444356Y29228868D01*
X3445592Y29231132D01*
X3445461Y29232965D01*
X3441210Y29239580D01*
X2735713Y29945077D01*
X2723938Y29951507D01*
X2711923Y29942211D01*
X2676069Y29891006D01*
X2670586Y29881511D01*
X2578510Y29684053D01*
X2574764Y29673761D01*
X2518375Y29463312D01*
X2516472Y29452519D01*
X2497483Y29235475D01*
X2497483Y29224525D01*
X500000Y29224525D01*
X500000Y31760246D01*
X2654967Y31760246D01*
X2668796Y31549251D01*
X2670217Y31543655D01*
X2670218Y31543650D01*
X2692784Y31454800D01*
X2720845Y31344310D01*
X2809369Y31152286D01*
X2931405Y30979609D01*
X2935539Y30975582D01*
X3065627Y30848856D01*
X3082865Y30832063D01*
X3087661Y30828858D01*
X3087664Y30828856D01*
X3200330Y30753575D01*
X3258677Y30714589D01*
X3263980Y30712310D01*
X3263985Y30712308D01*
X3299343Y30697118D01*
X3333299Y30682529D01*
X3387991Y30637263D01*
X3409529Y30569612D01*
X3391072Y30501056D01*
X3336811Y30452567D01*
X3158489Y30369414D01*
X3148994Y30363931D01*
X3096952Y30327491D01*
X3088576Y30317012D01*
X3095644Y30303566D01*
X3797188Y29602022D01*
X3811132Y29594408D01*
X3812965Y29594539D01*
X3819580Y29598790D01*
X4525077Y30304287D01*
X4531507Y30316062D01*
X4522211Y30328077D01*
X4471006Y30363931D01*
X4461511Y30369414D01*
X4288120Y30450267D01*
X4234835Y30497184D01*
X4215374Y30565462D01*
X4235916Y30633421D01*
X4281320Y30672026D01*
X4279955Y30674463D01*
X4459395Y30774954D01*
X4459399Y30774957D01*
X4464442Y30777781D01*
X4627012Y30912988D01*
X4762219Y31075558D01*
X4765043Y31080601D01*
X4765046Y31080605D01*
X4862713Y31255002D01*
X4862714Y31255004D01*
X4865537Y31260045D01*
X4867393Y31265512D01*
X4867395Y31265517D01*
X4931647Y31454800D01*
X4933504Y31460270D01*
X4934705Y31468548D01*
X4963314Y31665860D01*
X4963314Y31665862D01*
X4963846Y31669530D01*
X4965429Y31730000D01*
X4946081Y31940560D01*
X4936291Y31975275D01*
X4890255Y32138504D01*
X4888686Y32144069D01*
X4877553Y32166646D01*
X4797719Y32328531D01*
X4795165Y32333710D01*
X4668651Y32503133D01*
X4568286Y32595910D01*
X4517622Y32642743D01*
X4517620Y32642745D01*
X4513381Y32646663D01*
X4480014Y32667716D01*
X4339434Y32756416D01*
X4339433Y32756416D01*
X4334554Y32759495D01*
X4138160Y32837848D01*
X4132503Y32838973D01*
X4132497Y32838975D01*
X3936442Y32877972D01*
X3936440Y32877972D01*
X3930775Y32879099D01*
X3925000Y32879175D01*
X3924996Y32879175D01*
X3818976Y32880563D01*
X3719346Y32881867D01*
X3713649Y32880888D01*
X3713648Y32880888D01*
X3516650Y32847038D01*
X3516649Y32847038D01*
X3510953Y32846059D01*
X3312575Y32772873D01*
X3307614Y32769921D01*
X3307613Y32769921D01*
X3206194Y32709583D01*
X3130856Y32664762D01*
X2971881Y32525345D01*
X2840976Y32359292D01*
X2838287Y32354181D01*
X2838285Y32354178D01*
X2824792Y32328531D01*
X2742523Y32172164D01*
X2679820Y31970227D01*
X2654967Y31760246D01*
X500000Y31760246D01*
X500000Y35361782D01*
X2659500Y35361782D01*
X2660170Y35357232D01*
X2660170Y35357229D01*
X2668216Y35302574D01*
X2669642Y35292888D01*
X2673958Y35284098D01*
X2713634Y35203287D01*
X2721068Y35188145D01*
X2728438Y35180788D01*
X2789665Y35119668D01*
X2803650Y35105707D01*
X2813006Y35101134D01*
X2813007Y35101133D01*
X2837522Y35089150D01*
X2908482Y35054464D01*
X2931418Y35051118D01*
X2972256Y35045160D01*
X2972260Y35045160D01*
X2976782Y35044500D01*
X4643218Y35044500D01*
X4647768Y35045170D01*
X4647771Y35045170D01*
X4702426Y35053216D01*
X4702427Y35053216D01*
X4712112Y35054642D01*
X4806804Y35101133D01*
X4807507Y35101478D01*
X4807509Y35101479D01*
X4816855Y35106068D01*
X4899293Y35188650D01*
X4950536Y35293482D01*
X4960500Y35361782D01*
X4960500Y37028218D01*
X4958184Y37043954D01*
X4951784Y37087426D01*
X4951784Y37087427D01*
X4950358Y37097112D01*
X4898932Y37201855D01*
X4838618Y37262064D01*
X4823721Y37276935D01*
X4823720Y37276935D01*
X4816350Y37284293D01*
X4791386Y37296496D01*
X4741104Y37321074D01*
X4711518Y37335536D01*
X4681027Y37339984D01*
X4647744Y37344840D01*
X4647740Y37344840D01*
X4643218Y37345500D01*
X4562763Y37345500D01*
X4494642Y37365502D01*
X4448149Y37419158D01*
X4438045Y37489432D01*
X4467539Y37554012D01*
X4490492Y37574713D01*
X4523048Y37597509D01*
X4531424Y37607988D01*
X4524356Y37621434D01*
X3822812Y38322978D01*
X3808868Y38330592D01*
X3807035Y38330461D01*
X3800420Y38326210D01*
X3094923Y37620713D01*
X3088493Y37608938D01*
X3097789Y37596923D01*
X3129508Y37574713D01*
X3173836Y37519256D01*
X3181145Y37448636D01*
X3149114Y37385276D01*
X3087913Y37349291D01*
X3057237Y37345500D01*
X2976782Y37345500D01*
X2972232Y37344830D01*
X2972229Y37344830D01*
X2917574Y37336784D01*
X2917573Y37336784D01*
X2907888Y37335358D01*
X2878795Y37321074D01*
X2812493Y37288522D01*
X2812491Y37288521D01*
X2803145Y37283932D01*
X2720707Y37201350D01*
X2669464Y37096518D01*
X2667152Y37080667D01*
X2661796Y37043954D01*
X2659500Y37028218D01*
X2659500Y35361782D01*
X500000Y35361782D01*
X500000Y38689525D01*
X2497483Y38689525D01*
X2516472Y38472481D01*
X2518375Y38461688D01*
X2574764Y38251239D01*
X2578510Y38240947D01*
X2670586Y38043489D01*
X2676069Y38033994D01*
X2712509Y37981952D01*
X2722988Y37973576D01*
X2736434Y37980644D01*
X3437978Y38682188D01*
X3444356Y38693868D01*
X4174408Y38693868D01*
X4174539Y38692035D01*
X4178790Y38685420D01*
X4884287Y37979923D01*
X4896062Y37973493D01*
X4908077Y37982789D01*
X4943931Y38033994D01*
X4949414Y38043489D01*
X5041490Y38240947D01*
X5045236Y38251239D01*
X5101625Y38461688D01*
X5103528Y38472481D01*
X5122517Y38689525D01*
X5122517Y38700475D01*
X5103528Y38917519D01*
X5101625Y38928312D01*
X5045236Y39138761D01*
X5041490Y39149053D01*
X4949414Y39346511D01*
X4943931Y39356006D01*
X4907491Y39408048D01*
X4897012Y39416424D01*
X4883566Y39409356D01*
X4182022Y38707812D01*
X4174408Y38693868D01*
X3444356Y38693868D01*
X3445592Y38696132D01*
X3445461Y38697965D01*
X3441210Y38704580D01*
X2735713Y39410077D01*
X2723938Y39416507D01*
X2711923Y39407211D01*
X2676069Y39356006D01*
X2670586Y39346511D01*
X2578510Y39149053D01*
X2574764Y39138761D01*
X2518375Y38928312D01*
X2516472Y38917519D01*
X2497483Y38700475D01*
X2497483Y38689525D01*
X500000Y38689525D01*
X500000Y39782012D01*
X3088576Y39782012D01*
X3095644Y39768566D01*
X3797188Y39067022D01*
X3811132Y39059408D01*
X3812965Y39059539D01*
X3819580Y39063790D01*
X4525077Y39769287D01*
X4531507Y39781062D01*
X4522211Y39793077D01*
X4471006Y39828931D01*
X4461511Y39834414D01*
X4264053Y39926490D01*
X4253761Y39930236D01*
X4043312Y39986625D01*
X4032519Y39988528D01*
X3815475Y40007517D01*
X3804525Y40007517D01*
X3587481Y39988528D01*
X3576688Y39986625D01*
X3366239Y39930236D01*
X3355947Y39926490D01*
X3158489Y39834414D01*
X3148994Y39828931D01*
X3096952Y39792491D01*
X3088576Y39782012D01*
X500000Y39782012D01*
X500000Y46723478D01*
X2527273Y46723478D01*
X2574764Y46546239D01*
X2578510Y46535947D01*
X2670586Y46338489D01*
X2676069Y46328993D01*
X2801028Y46150533D01*
X2808084Y46142125D01*
X2962125Y45988084D01*
X2970533Y45981028D01*
X3148993Y45856069D01*
X3158489Y45850586D01*
X3355947Y45758510D01*
X3366239Y45754764D01*
X3538503Y45708606D01*
X3552599Y45708942D01*
X3556000Y45716884D01*
X3556000Y45722033D01*
X4064000Y45722033D01*
X4067973Y45708502D01*
X4076522Y45707273D01*
X4253761Y45754764D01*
X4264053Y45758510D01*
X4461511Y45850586D01*
X4471007Y45856069D01*
X4649467Y45981028D01*
X4657875Y45988084D01*
X4811916Y46142125D01*
X4818972Y46150533D01*
X4943931Y46328993D01*
X4949414Y46338489D01*
X5041490Y46535947D01*
X5045236Y46546239D01*
X5091394Y46718503D01*
X5091058Y46732599D01*
X5083116Y46736000D01*
X4082115Y46736000D01*
X4066876Y46731525D01*
X4065671Y46730135D01*
X4064000Y46722452D01*
X4064000Y45722033D01*
X3556000Y45722033D01*
X3556000Y46717885D01*
X3551525Y46733124D01*
X3550135Y46734329D01*
X3542452Y46736000D01*
X2542033Y46736000D01*
X2528502Y46732027D01*
X2527273Y46723478D01*
X500000Y46723478D01*
X500000Y47261497D01*
X2528606Y47261497D01*
X2528942Y47247401D01*
X2536884Y47244000D01*
X3537885Y47244000D01*
X3553124Y47248475D01*
X3554329Y47249865D01*
X3556000Y47257548D01*
X3556000Y47262115D01*
X4064000Y47262115D01*
X4068475Y47246876D01*
X4069865Y47245671D01*
X4077548Y47244000D01*
X5077967Y47244000D01*
X5091498Y47247973D01*
X5092727Y47256522D01*
X5045236Y47433761D01*
X5041490Y47444053D01*
X4949414Y47641511D01*
X4943931Y47651007D01*
X4818972Y47829467D01*
X4811916Y47837875D01*
X4657875Y47991916D01*
X4649467Y47998972D01*
X4471007Y48123931D01*
X4461511Y48129414D01*
X4264053Y48221490D01*
X4253761Y48225236D01*
X4081497Y48271394D01*
X4067401Y48271058D01*
X4064000Y48263116D01*
X4064000Y47262115D01*
X3556000Y47262115D01*
X3556000Y48257967D01*
X3552027Y48271498D01*
X3543478Y48272727D01*
X3366239Y48225236D01*
X3355947Y48221490D01*
X3158489Y48129414D01*
X3148993Y48123931D01*
X2970533Y47998972D01*
X2962125Y47991916D01*
X2808084Y47837875D01*
X2801028Y47829467D01*
X2676069Y47651007D01*
X2670586Y47641511D01*
X2578510Y47444053D01*
X2574764Y47433761D01*
X2528606Y47261497D01*
X500000Y47261497D01*
X500000Y57180246D01*
X2654967Y57180246D01*
X2668796Y56969251D01*
X2670217Y56963655D01*
X2670218Y56963650D01*
X2698579Y56851981D01*
X2720845Y56764310D01*
X2809369Y56572286D01*
X2931405Y56399609D01*
X2935539Y56395582D01*
X3072402Y56262256D01*
X3082865Y56252063D01*
X3087661Y56248858D01*
X3087664Y56248856D01*
X3192500Y56178807D01*
X3258677Y56134589D01*
X3263985Y56132308D01*
X3263986Y56132308D01*
X3447650Y56053400D01*
X3447653Y56053399D01*
X3452953Y56051122D01*
X3458582Y56049848D01*
X3458583Y56049848D01*
X3653550Y56005731D01*
X3653553Y56005731D01*
X3659186Y56004456D01*
X3664957Y56004229D01*
X3664959Y56004229D01*
X3726989Y56001792D01*
X3870470Y55996154D01*
X3876179Y55996982D01*
X3876183Y55996982D01*
X4074015Y56025667D01*
X4074019Y56025668D01*
X4079730Y56026496D01*
X4158987Y56053400D01*
X4274483Y56092605D01*
X4274488Y56092607D01*
X4279955Y56094463D01*
X4294294Y56102493D01*
X4459395Y56194954D01*
X4459399Y56194957D01*
X4464442Y56197781D01*
X4627012Y56332988D01*
X4762219Y56495558D01*
X4765043Y56500601D01*
X4765046Y56500605D01*
X4862713Y56675002D01*
X4862714Y56675004D01*
X4865537Y56680045D01*
X4867393Y56685512D01*
X4867395Y56685517D01*
X4931647Y56874800D01*
X4933504Y56880270D01*
X4963846Y57089530D01*
X4965429Y57150000D01*
X4946081Y57360560D01*
X4895274Y57540709D01*
X4896035Y57611701D01*
X4927449Y57664004D01*
X10085740Y62822295D01*
X10148052Y62856321D01*
X10174835Y62859200D01*
X10788500Y62859200D01*
X10856621Y62839198D01*
X10903114Y62785542D01*
X10914500Y62733200D01*
X10914500Y61396782D01*
X10915170Y61392232D01*
X10915170Y61392229D01*
X10923216Y61337574D01*
X10924642Y61327888D01*
X10928958Y61319098D01*
X10955669Y61264694D01*
X10976068Y61223145D01*
X11058650Y61140707D01*
X11163482Y61089464D01*
X11189235Y61085707D01*
X11227256Y61080160D01*
X11227260Y61080160D01*
X11231782Y61079500D01*
X11879988Y61079500D01*
X11948109Y61059498D01*
X11994602Y61005842D01*
X12004706Y60935568D01*
X11975212Y60870988D01*
X11915486Y60832604D01*
X11901326Y60829320D01*
X11771650Y60807038D01*
X11771649Y60807038D01*
X11765953Y60806059D01*
X11567575Y60732873D01*
X11562614Y60729921D01*
X11562613Y60729921D01*
X11545089Y60719495D01*
X11385856Y60624762D01*
X11226881Y60485345D01*
X11095976Y60319292D01*
X11093287Y60314181D01*
X11093285Y60314178D01*
X11079792Y60288531D01*
X10997523Y60132164D01*
X10934820Y59930227D01*
X10909967Y59720246D01*
X10923796Y59509251D01*
X10925217Y59503655D01*
X10925218Y59503650D01*
X10947784Y59414800D01*
X10975845Y59304310D01*
X11064369Y59112286D01*
X11186405Y58939609D01*
X11337865Y58792063D01*
X11342661Y58788858D01*
X11342664Y58788856D01*
X11447500Y58718807D01*
X11513677Y58674589D01*
X11518985Y58672308D01*
X11518986Y58672308D01*
X11702650Y58593400D01*
X11702653Y58593399D01*
X11707953Y58591122D01*
X11713582Y58589848D01*
X11713583Y58589848D01*
X11908550Y58545731D01*
X11908553Y58545731D01*
X11914186Y58544456D01*
X11919958Y58544229D01*
X11925687Y58543475D01*
X11925327Y58540743D01*
X11981604Y58521784D01*
X12025950Y58466341D01*
X12033282Y58395724D01*
X12001271Y58332353D01*
X11940081Y58296349D01*
X11930704Y58294368D01*
X11771650Y58267038D01*
X11771649Y58267038D01*
X11765953Y58266059D01*
X11567575Y58192873D01*
X11562614Y58189921D01*
X11562613Y58189921D01*
X11397750Y58091838D01*
X11385856Y58084762D01*
X11226881Y57945345D01*
X11095976Y57779292D01*
X11093287Y57774181D01*
X11093285Y57774178D01*
X11079792Y57748531D01*
X10997523Y57592164D01*
X10995810Y57586646D01*
X10995806Y57586636D01*
X10971832Y57509429D01*
X10932529Y57450303D01*
X10867500Y57421813D01*
X10797391Y57433003D01*
X10744461Y57480320D01*
X10725500Y57546793D01*
X10725500Y58033218D01*
X10716871Y58091838D01*
X10716784Y58092426D01*
X10716784Y58092427D01*
X10715358Y58102112D01*
X10676315Y58181634D01*
X10668522Y58197507D01*
X10668521Y58197509D01*
X10663932Y58206855D01*
X10581350Y58289293D01*
X10571899Y58293913D01*
X10539540Y58309730D01*
X10476518Y58340536D01*
X10446027Y58344984D01*
X10412744Y58349840D01*
X10412740Y58349840D01*
X10408218Y58350500D01*
X8641782Y58350500D01*
X8637232Y58349830D01*
X8637229Y58349830D01*
X8582574Y58341784D01*
X8582573Y58341784D01*
X8572888Y58340358D01*
X8550488Y58329360D01*
X8477493Y58293522D01*
X8477491Y58293521D01*
X8468145Y58288932D01*
X8446289Y58267038D01*
X8406567Y58227246D01*
X8385707Y58206350D01*
X8381134Y58196994D01*
X8381133Y58196993D01*
X8372580Y58179495D01*
X8334464Y58101518D01*
X8324500Y58033218D01*
X8324500Y56266782D01*
X8325170Y56262232D01*
X8325170Y56262229D01*
X8333216Y56207574D01*
X8334642Y56197888D01*
X8386068Y56093145D01*
X8468650Y56010707D01*
X8478006Y56006134D01*
X8478007Y56006133D01*
X8483445Y56003475D01*
X8573482Y55959464D01*
X8603973Y55955016D01*
X8637256Y55950160D01*
X8637260Y55950160D01*
X8641782Y55949500D01*
X8981570Y55949500D01*
X9049691Y55929498D01*
X9096184Y55875842D01*
X9106288Y55805568D01*
X9076794Y55740988D01*
X9025180Y55705288D01*
X9016382Y55702042D01*
X9005957Y55698196D01*
X8816341Y55585386D01*
X8650457Y55439910D01*
X8513863Y55266640D01*
X8411131Y55071380D01*
X8345703Y54860667D01*
X8319770Y54641560D01*
X8334200Y54421396D01*
X8335621Y54415800D01*
X8335622Y54415795D01*
X8387090Y54213143D01*
X8388511Y54207548D01*
X8390928Y54202306D01*
X8390928Y54202305D01*
X8421955Y54135002D01*
X8480883Y54007179D01*
X8608222Y53826998D01*
X8766264Y53673039D01*
X8771060Y53669834D01*
X8771063Y53669832D01*
X8868539Y53604701D01*
X8949717Y53550460D01*
X8955019Y53548182D01*
X8955032Y53548175D01*
X9034595Y53513992D01*
X9089288Y53468724D01*
X9103098Y53436675D01*
X9103869Y53436973D01*
X9105000Y53434050D01*
X9106234Y53429397D01*
X9107823Y53425709D01*
X9108924Y53420784D01*
X9111156Y53413530D01*
X9112556Y53404216D01*
X9130935Y53365941D01*
X9134851Y53356890D01*
X9139839Y53343998D01*
X9145764Y53273251D01*
X9112499Y53210530D01*
X9065937Y53180324D01*
X9011376Y53160196D01*
X9011368Y53160192D01*
X9005957Y53158196D01*
X9000996Y53155244D01*
X9000995Y53155244D01*
X8872801Y53078976D01*
X8816341Y53045386D01*
X8650457Y52899910D01*
X8513863Y52726640D01*
X8411131Y52531380D01*
X8345703Y52320667D01*
X8319770Y52101560D01*
X8334200Y51881396D01*
X8335621Y51875800D01*
X8335622Y51875795D01*
X8387090Y51673143D01*
X8388511Y51667548D01*
X8390928Y51662306D01*
X8390928Y51662305D01*
X8421955Y51595002D01*
X8480883Y51467179D01*
X8608222Y51286998D01*
X8766264Y51133039D01*
X8771060Y51129834D01*
X8771063Y51129832D01*
X8789099Y51117781D01*
X8949717Y51010460D01*
X8955020Y51008182D01*
X8955023Y51008180D01*
X9145169Y50926487D01*
X9152436Y50923365D01*
X9158071Y50922090D01*
X9158074Y50922089D01*
X9159484Y50921770D01*
X9160083Y50921436D01*
X9163562Y50920306D01*
X9163340Y50919623D01*
X9221511Y50887228D01*
X9255016Y50824634D01*
X9249362Y50753863D01*
X9206344Y50697384D01*
X9175287Y50680665D01*
X9011376Y50620196D01*
X9011368Y50620192D01*
X9005957Y50618196D01*
X9000996Y50615244D01*
X9000995Y50615244D01*
X8872801Y50538976D01*
X8816341Y50505386D01*
X8650457Y50359910D01*
X8513863Y50186640D01*
X8411131Y49991380D01*
X8345703Y49780667D01*
X8319770Y49561560D01*
X8334200Y49341396D01*
X8335621Y49335800D01*
X8335622Y49335795D01*
X8387090Y49133143D01*
X8388511Y49127548D01*
X8390928Y49122306D01*
X8390928Y49122305D01*
X8421955Y49055002D01*
X8480883Y48927179D01*
X8608222Y48746998D01*
X8766264Y48593039D01*
X8771060Y48589834D01*
X8771063Y48589832D01*
X8789099Y48577781D01*
X8949717Y48470460D01*
X8955020Y48468182D01*
X8955023Y48468180D01*
X9145169Y48386487D01*
X9152436Y48383365D01*
X9158071Y48382090D01*
X9158074Y48382089D01*
X9159484Y48381770D01*
X9160083Y48381436D01*
X9163562Y48380306D01*
X9163340Y48379623D01*
X9221511Y48347228D01*
X9255016Y48284634D01*
X9249362Y48213863D01*
X9206344Y48157384D01*
X9175287Y48140665D01*
X9011376Y48080196D01*
X9011368Y48080192D01*
X9005957Y48078196D01*
X9000996Y48075244D01*
X9000995Y48075244D01*
X8872801Y47998976D01*
X8816341Y47965386D01*
X8650457Y47819910D01*
X8513863Y47646640D01*
X8411131Y47451380D01*
X8345703Y47240667D01*
X8319770Y47021560D01*
X8334200Y46801396D01*
X8335621Y46795800D01*
X8335622Y46795795D01*
X8387090Y46593143D01*
X8388511Y46587548D01*
X8390928Y46582306D01*
X8390928Y46582305D01*
X8421955Y46515002D01*
X8480883Y46387179D01*
X8608222Y46206998D01*
X8722244Y46095922D01*
X8757049Y46062016D01*
X8791886Y46000154D01*
X8787749Y45929278D01*
X8758222Y45882667D01*
X8127278Y45251723D01*
X8116188Y45241868D01*
X8098634Y45228030D01*
X8098630Y45228026D01*
X8091235Y45222196D01*
X8059643Y45176485D01*
X8057410Y45173362D01*
X8024438Y45128721D01*
X8022173Y45122271D01*
X8018283Y45116643D01*
X8015445Y45107668D01*
X8015442Y45107663D01*
X8001556Y45063754D01*
X8000303Y45059997D01*
X7985043Y45016545D01*
X7985042Y45016542D01*
X7981923Y45007659D01*
X7981654Y45000823D01*
X7979593Y44994305D01*
X7979100Y44988041D01*
X7979100Y44938280D01*
X7979003Y44933334D01*
X7976886Y44879448D01*
X7978692Y44872637D01*
X7979100Y44865222D01*
X7979100Y38995610D01*
X7978227Y38980802D01*
X7974492Y38949245D01*
X7976184Y38939983D01*
X7976184Y38939974D01*
X7984463Y38894648D01*
X7985114Y38890740D01*
X7993356Y38835916D01*
X7996316Y38829752D01*
X7997545Y38823023D01*
X8023122Y38773785D01*
X8024879Y38770269D01*
X8044820Y38728741D01*
X8044822Y38728737D01*
X8048898Y38720250D01*
X8053541Y38715228D01*
X8056693Y38709159D01*
X8060774Y38704381D01*
X8095949Y38669206D01*
X8099378Y38665641D01*
X8135995Y38626029D01*
X8142087Y38622490D01*
X8147624Y38617531D01*
X8797629Y37967526D01*
X8831655Y37905214D01*
X8826590Y37834399D01*
X8791613Y37783700D01*
X8650457Y37659910D01*
X8513863Y37486640D01*
X8411131Y37291380D01*
X8345703Y37080667D01*
X8319770Y36861560D01*
X8334200Y36641396D01*
X8335621Y36635800D01*
X8335622Y36635795D01*
X8387090Y36433143D01*
X8388511Y36427548D01*
X8390928Y36422306D01*
X8390928Y36422305D01*
X8429046Y36339621D01*
X8480883Y36227179D01*
X8608222Y36046998D01*
X8612356Y36042971D01*
X8757049Y35902016D01*
X8791886Y35840154D01*
X8787749Y35769278D01*
X8758222Y35722667D01*
X8165078Y35129523D01*
X8153988Y35119668D01*
X8136434Y35105830D01*
X8136430Y35105826D01*
X8129035Y35099996D01*
X8097443Y35054285D01*
X8095210Y35051162D01*
X8062238Y35006521D01*
X8059973Y35000071D01*
X8056083Y34994443D01*
X8053245Y34985468D01*
X8053242Y34985463D01*
X8039356Y34941554D01*
X8038103Y34937797D01*
X8022843Y34894345D01*
X8022842Y34894342D01*
X8019723Y34885459D01*
X8019454Y34878623D01*
X8017393Y34872105D01*
X8016900Y34865841D01*
X8016900Y34816080D01*
X8016803Y34811134D01*
X8014686Y34757248D01*
X8016492Y34750437D01*
X8016900Y34743022D01*
X8016900Y13537210D01*
X8016027Y13522402D01*
X8012292Y13490845D01*
X8013984Y13481583D01*
X8013984Y13481574D01*
X8022263Y13436248D01*
X8022914Y13432340D01*
X8031156Y13377516D01*
X8034116Y13371352D01*
X8035345Y13364623D01*
X8060922Y13315385D01*
X8062679Y13311869D01*
X8082620Y13270341D01*
X8082622Y13270337D01*
X8086698Y13261850D01*
X8091341Y13256828D01*
X8094493Y13250759D01*
X8098574Y13245981D01*
X8133749Y13210806D01*
X8137178Y13207241D01*
X8173795Y13167629D01*
X8179887Y13164090D01*
X8185424Y13159131D01*
X8786654Y12557901D01*
X8820680Y12495589D01*
X8815615Y12424774D01*
X8780638Y12374075D01*
X8650457Y12259910D01*
X8513863Y12086640D01*
X8411131Y11891380D01*
X8345703Y11680667D01*
X8319770Y11461560D01*
X8334200Y11241396D01*
X8335621Y11235800D01*
X8335622Y11235795D01*
X8387090Y11033143D01*
X8388511Y11027548D01*
X8390928Y11022306D01*
X8390928Y11022305D01*
X8429046Y10939621D01*
X8480883Y10827179D01*
X8608222Y10646998D01*
X8766264Y10493039D01*
X8771060Y10489834D01*
X8771063Y10489832D01*
X8855261Y10433573D01*
X8949717Y10370460D01*
X8955020Y10368182D01*
X8955023Y10368180D01*
X9114478Y10299673D01*
X9152436Y10283365D01*
X9158071Y10282090D01*
X9158074Y10282089D01*
X9159484Y10281770D01*
X9160083Y10281436D01*
X9163562Y10280306D01*
X9163340Y10279623D01*
X9221511Y10247228D01*
X9255016Y10184634D01*
X9249362Y10113863D01*
X9206344Y10057384D01*
X9175287Y10040665D01*
X9011376Y9980196D01*
X9011368Y9980192D01*
X9005957Y9978196D01*
X9000996Y9975244D01*
X9000995Y9975244D01*
X8877114Y9901542D01*
X8816341Y9865386D01*
X8650457Y9719910D01*
X8513863Y9546640D01*
X8411131Y9351380D01*
X8345703Y9140667D01*
X8319770Y8921560D01*
X8334200Y8701396D01*
X8335621Y8695800D01*
X8335622Y8695795D01*
X8387090Y8493143D01*
X8388511Y8487548D01*
X8390928Y8482306D01*
X8390928Y8482305D01*
X8429046Y8399621D01*
X8480883Y8287179D01*
X8608222Y8106998D01*
X8766264Y7953039D01*
X8771060Y7949834D01*
X8771063Y7949832D01*
X8855261Y7893573D01*
X8949717Y7830460D01*
X8955020Y7828182D01*
X8955023Y7828180D01*
X9145169Y7746487D01*
X9152436Y7743365D01*
X9232088Y7725342D01*
X9361995Y7695946D01*
X9362001Y7695945D01*
X9367632Y7694671D01*
X9373403Y7694444D01*
X9373405Y7694444D01*
X9441211Y7691780D01*
X9588098Y7686009D01*
X9697275Y7701839D01*
X9800738Y7716840D01*
X9800743Y7716841D01*
X9806452Y7717669D01*
X9811916Y7719524D01*
X9811921Y7719525D01*
X10009907Y7786732D01*
X10009912Y7786734D01*
X10015379Y7788590D01*
X10207884Y7896398D01*
X10254243Y7934954D01*
X10373086Y8033796D01*
X10377518Y8037482D01*
X10410739Y8077426D01*
X10514908Y8202674D01*
X10514910Y8202677D01*
X10518602Y8207116D01*
X10604478Y8360459D01*
X10623586Y8394578D01*
X10623587Y8394580D01*
X10626410Y8399621D01*
X10628266Y8405088D01*
X10628268Y8405093D01*
X10695475Y8603079D01*
X10695476Y8603084D01*
X10697331Y8608548D01*
X10698159Y8614261D01*
X10699509Y8619883D01*
X10700854Y8619560D01*
X10727611Y8677953D01*
X10787385Y8716262D01*
X10858382Y8716172D01*
X10918059Y8677713D01*
X10944854Y8626336D01*
X10974423Y8509907D01*
X10974424Y8509905D01*
X10975845Y8504310D01*
X10978262Y8499067D01*
X11024107Y8399621D01*
X11064369Y8312286D01*
X11186405Y8139609D01*
X11337865Y7992063D01*
X11342661Y7988858D01*
X11342664Y7988856D01*
X11475509Y7900092D01*
X11513677Y7874589D01*
X11607074Y7834463D01*
X11661346Y7811146D01*
X11716040Y7765878D01*
X11737577Y7698227D01*
X11719120Y7629671D01*
X11712973Y7620537D01*
X11683638Y7580821D01*
X11681373Y7574371D01*
X11677483Y7568743D01*
X11674645Y7559768D01*
X11674642Y7559763D01*
X11660756Y7515854D01*
X11659503Y7512098D01*
X11644730Y7470031D01*
X11603287Y7412386D01*
X11577803Y7398210D01*
X11578209Y7397360D01*
X11572991Y7394871D01*
X11567575Y7392873D01*
X11562614Y7389921D01*
X11562613Y7389921D01*
X11545089Y7379495D01*
X11385856Y7284762D01*
X11226881Y7145345D01*
X11095976Y6979292D01*
X11093287Y6974181D01*
X11093285Y6974178D01*
X11079792Y6948531D01*
X10997523Y6792164D01*
X10934820Y6590227D01*
X10909967Y6380246D01*
X10923796Y6169251D01*
X10925217Y6163655D01*
X10925218Y6163650D01*
X10947784Y6074800D01*
X10975845Y5964310D01*
X11064369Y5772286D01*
X11186405Y5599609D01*
X11337865Y5452063D01*
X11342661Y5448858D01*
X11342664Y5448856D01*
X11485936Y5353125D01*
X11513677Y5334589D01*
X11518985Y5332308D01*
X11518986Y5332308D01*
X11702650Y5253400D01*
X11702653Y5253399D01*
X11707953Y5251122D01*
X11713582Y5249848D01*
X11713583Y5249848D01*
X11908550Y5205731D01*
X11908553Y5205731D01*
X11914186Y5204456D01*
X11919958Y5204229D01*
X11925687Y5203475D01*
X11925327Y5200743D01*
X11981604Y5181784D01*
X12025950Y5126341D01*
X12033282Y5055724D01*
X12001271Y4992353D01*
X11940081Y4956349D01*
X11930704Y4954368D01*
X11771650Y4927038D01*
X11771649Y4927038D01*
X11765953Y4926059D01*
X11567575Y4852873D01*
X11562614Y4849921D01*
X11562613Y4849921D01*
X11545089Y4839495D01*
X11385856Y4744762D01*
X11226881Y4605345D01*
X11095976Y4439292D01*
X11093287Y4434181D01*
X11093285Y4434178D01*
X11079792Y4408531D01*
X10997523Y4252164D01*
X10934820Y4050227D01*
X10909967Y3840246D01*
X10923796Y3629251D01*
X10925217Y3623655D01*
X10925218Y3623650D01*
X10947784Y3534800D01*
X10975845Y3424310D01*
X11064369Y3232286D01*
X11186405Y3059609D01*
X11337865Y2912063D01*
X11342661Y2908858D01*
X11342664Y2908856D01*
X11485936Y2813125D01*
X11513677Y2794589D01*
X11518985Y2792308D01*
X11518986Y2792308D01*
X11702650Y2713400D01*
X11702653Y2713399D01*
X11707953Y2711122D01*
X11713582Y2709848D01*
X11713583Y2709848D01*
X11908550Y2665731D01*
X11908553Y2665731D01*
X11914186Y2664456D01*
X11919957Y2664229D01*
X11919959Y2664229D01*
X11981989Y2661792D01*
X12125470Y2656154D01*
X12131179Y2656982D01*
X12131183Y2656982D01*
X12329015Y2685667D01*
X12329019Y2685668D01*
X12334730Y2686496D01*
X12413987Y2713400D01*
X12529483Y2752605D01*
X12529488Y2752607D01*
X12534955Y2754463D01*
X12539998Y2757287D01*
X12714395Y2854954D01*
X12714399Y2854957D01*
X12719442Y2857781D01*
X12882012Y2992988D01*
X13017219Y3155558D01*
X13020043Y3160601D01*
X13020046Y3160605D01*
X13117713Y3335002D01*
X13117714Y3335004D01*
X13120537Y3340045D01*
X13122393Y3345512D01*
X13122395Y3345517D01*
X13186647Y3534800D01*
X13188504Y3540270D01*
X13218846Y3749530D01*
X13220429Y3810000D01*
X13201081Y4020560D01*
X13143686Y4224069D01*
X13132553Y4246646D01*
X13052719Y4408531D01*
X13050165Y4413710D01*
X12923651Y4583133D01*
X12768381Y4726663D01*
X12589554Y4839495D01*
X12393160Y4917848D01*
X12387503Y4918973D01*
X12387497Y4918975D01*
X12190234Y4958212D01*
X12127324Y4991119D01*
X12092192Y5052814D01*
X12095992Y5123709D01*
X12137517Y5181295D01*
X12196734Y5206487D01*
X12329015Y5225667D01*
X12329019Y5225668D01*
X12334730Y5226496D01*
X12413987Y5253400D01*
X12529483Y5292605D01*
X12529488Y5292607D01*
X12534955Y5294463D01*
X12539998Y5297287D01*
X12714395Y5394954D01*
X12714399Y5394957D01*
X12719442Y5397781D01*
X12882012Y5532988D01*
X13017219Y5695558D01*
X13020043Y5700601D01*
X13020046Y5700605D01*
X13117713Y5875002D01*
X13117714Y5875004D01*
X13120537Y5880045D01*
X13122393Y5885512D01*
X13122395Y5885517D01*
X13186647Y6074800D01*
X13188504Y6080270D01*
X13218846Y6289530D01*
X13220429Y6350000D01*
X13201081Y6560560D01*
X13143686Y6764069D01*
X13132553Y6786646D01*
X13052719Y6948531D01*
X13050165Y6953710D01*
X12923651Y7123133D01*
X12768381Y7266663D01*
X12763494Y7269746D01*
X12761936Y7270942D01*
X12720069Y7328280D01*
X12715847Y7399151D01*
X12749545Y7460000D01*
X13386322Y8096777D01*
X13397412Y8106632D01*
X13414967Y8120471D01*
X13414970Y8120475D01*
X13422365Y8126304D01*
X13427719Y8134051D01*
X13427723Y8134055D01*
X13453915Y8171951D01*
X13456215Y8175171D01*
X13483568Y8212204D01*
X13489163Y8219779D01*
X13491429Y8226231D01*
X13495317Y8231857D01*
X13512048Y8284761D01*
X13513302Y8288519D01*
X13514674Y8292424D01*
X13531677Y8340841D01*
X13531946Y8347677D01*
X13534007Y8354195D01*
X13534500Y8360459D01*
X13534500Y8410220D01*
X13534597Y8415166D01*
X13536344Y8459639D01*
X13536714Y8469052D01*
X13534908Y8475863D01*
X13534500Y8483278D01*
X13534500Y37218198D01*
X13535373Y37233008D01*
X13538000Y37255203D01*
X13539107Y37264555D01*
X13537415Y37273822D01*
X13529142Y37319122D01*
X13528492Y37323025D01*
X13521644Y37368575D01*
X13521643Y37368578D01*
X13520244Y37377884D01*
X13517284Y37384049D01*
X13516055Y37390777D01*
X13490478Y37440015D01*
X13488721Y37443531D01*
X13468780Y37485059D01*
X13468778Y37485063D01*
X13464702Y37493550D01*
X13460059Y37498572D01*
X13456907Y37504641D01*
X13452826Y37509419D01*
X13417651Y37544594D01*
X13414221Y37548160D01*
X13383997Y37580856D01*
X13383998Y37580856D01*
X13377605Y37587771D01*
X13371513Y37591310D01*
X13365976Y37596269D01*
X12721571Y38240674D01*
X12687545Y38302986D01*
X12692610Y38373801D01*
X12730095Y38426641D01*
X12882012Y38552988D01*
X13017219Y38715558D01*
X13020043Y38720601D01*
X13020046Y38720605D01*
X13117713Y38895002D01*
X13117714Y38895004D01*
X13120537Y38900045D01*
X13122393Y38905512D01*
X13122395Y38905517D01*
X13186647Y39094800D01*
X13188504Y39100270D01*
X13195578Y39149053D01*
X13218314Y39305860D01*
X13218314Y39305862D01*
X13218846Y39309530D01*
X13220429Y39370000D01*
X13201081Y39580560D01*
X13143686Y39784069D01*
X13132553Y39806646D01*
X13052719Y39968531D01*
X13050165Y39973710D01*
X12933132Y40130436D01*
X12927104Y40138509D01*
X12927103Y40138510D01*
X12923651Y40143133D01*
X12768381Y40286663D01*
X12623593Y40378018D01*
X12594434Y40396416D01*
X12594433Y40396416D01*
X12589554Y40399495D01*
X12557647Y40412225D01*
X12501789Y40456045D01*
X12479740Y40510519D01*
X12478845Y40516470D01*
X12478844Y40516474D01*
X12477444Y40525784D01*
X12474484Y40531949D01*
X12473255Y40538677D01*
X12447678Y40587915D01*
X12445921Y40591431D01*
X12425980Y40632959D01*
X12425978Y40632963D01*
X12421902Y40641450D01*
X12417259Y40646472D01*
X12417125Y40646729D01*
X12416822Y40647684D01*
X12415340Y40650168D01*
X12414112Y40652532D01*
X12415117Y40653054D01*
X12395721Y40714150D01*
X12414232Y40782691D01*
X12466861Y40830343D01*
X12481189Y40836212D01*
X12491700Y40839780D01*
X12534955Y40854463D01*
X12539998Y40857287D01*
X12714395Y40954954D01*
X12714399Y40954957D01*
X12719442Y40957781D01*
X12882012Y41092988D01*
X13017219Y41255558D01*
X13020043Y41260601D01*
X13020046Y41260605D01*
X13117713Y41435002D01*
X13117714Y41435004D01*
X13120537Y41440045D01*
X13122393Y41445512D01*
X13122395Y41445517D01*
X13186647Y41634800D01*
X13188504Y41640270D01*
X13218846Y41849530D01*
X13220429Y41910000D01*
X13201081Y42120560D01*
X13143686Y42324069D01*
X13132553Y42346646D01*
X13052719Y42508531D01*
X13050165Y42513710D01*
X12923651Y42683133D01*
X12768381Y42826663D01*
X12623493Y42918081D01*
X12594434Y42936416D01*
X12594433Y42936416D01*
X12589554Y42939495D01*
X12557647Y42952225D01*
X12501789Y42996045D01*
X12479740Y43050519D01*
X12478845Y43056470D01*
X12478844Y43056474D01*
X12477444Y43065784D01*
X12474484Y43071949D01*
X12473255Y43078677D01*
X12447678Y43127915D01*
X12445921Y43131431D01*
X12425980Y43172959D01*
X12425978Y43172963D01*
X12421902Y43181450D01*
X12417259Y43186472D01*
X12417125Y43186729D01*
X12416822Y43187684D01*
X12415340Y43190168D01*
X12414112Y43192532D01*
X12415117Y43193054D01*
X12395721Y43254150D01*
X12414232Y43322691D01*
X12466861Y43370343D01*
X12481189Y43376212D01*
X12534955Y43394463D01*
X12539998Y43397287D01*
X12714395Y43494954D01*
X12714399Y43494957D01*
X12719442Y43497781D01*
X12882012Y43632988D01*
X13017219Y43795558D01*
X13020043Y43800601D01*
X13020046Y43800605D01*
X13117713Y43975002D01*
X13117714Y43975004D01*
X13120537Y43980045D01*
X13122393Y43985512D01*
X13122395Y43985517D01*
X13186647Y44174800D01*
X13188504Y44180270D01*
X13218846Y44389530D01*
X13220429Y44450000D01*
X13201081Y44660560D01*
X13143686Y44864069D01*
X13079461Y44994305D01*
X13052719Y45048531D01*
X13050165Y45053710D01*
X12923651Y45223133D01*
X12768381Y45366663D01*
X12739696Y45384762D01*
X12594434Y45476416D01*
X12594433Y45476416D01*
X12589554Y45479495D01*
X12393160Y45557848D01*
X12387503Y45558973D01*
X12387497Y45558975D01*
X12190234Y45598212D01*
X12127324Y45631119D01*
X12092192Y45692814D01*
X12095992Y45763709D01*
X12137517Y45821295D01*
X12196734Y45846487D01*
X12329015Y45865667D01*
X12329019Y45865668D01*
X12334730Y45866496D01*
X12424454Y45896953D01*
X12529483Y45932605D01*
X12529488Y45932607D01*
X12534955Y45934463D01*
X12539998Y45937287D01*
X12714395Y46034954D01*
X12714399Y46034957D01*
X12719442Y46037781D01*
X12882012Y46172988D01*
X13017219Y46335558D01*
X13020043Y46340601D01*
X13020046Y46340605D01*
X13117713Y46515002D01*
X13117714Y46515004D01*
X13120537Y46520045D01*
X13122393Y46525512D01*
X13122395Y46525517D01*
X13186647Y46714800D01*
X13188504Y46720270D01*
X13189935Y46730135D01*
X13218314Y46925860D01*
X13218314Y46925862D01*
X13218846Y46929530D01*
X13220429Y46990000D01*
X13201081Y47200560D01*
X13188359Y47245671D01*
X13145255Y47398504D01*
X13143686Y47404069D01*
X13129044Y47433761D01*
X13052719Y47588531D01*
X13050165Y47593710D01*
X12923651Y47763133D01*
X12768381Y47906663D01*
X12739696Y47924762D01*
X12594434Y48016416D01*
X12594433Y48016416D01*
X12589554Y48019495D01*
X12393160Y48097848D01*
X12387503Y48098973D01*
X12387497Y48098975D01*
X12190234Y48138212D01*
X12127324Y48171119D01*
X12092192Y48232814D01*
X12095992Y48303709D01*
X12137517Y48361295D01*
X12196734Y48386487D01*
X12329015Y48405667D01*
X12329019Y48405668D01*
X12334730Y48406496D01*
X12424454Y48436953D01*
X12529483Y48472605D01*
X12529488Y48472607D01*
X12534955Y48474463D01*
X12539998Y48477287D01*
X12714395Y48574954D01*
X12714399Y48574957D01*
X12719442Y48577781D01*
X12882012Y48712988D01*
X13017219Y48875558D01*
X13020043Y48880601D01*
X13020046Y48880605D01*
X13117713Y49055002D01*
X13117714Y49055004D01*
X13120537Y49060045D01*
X13122393Y49065512D01*
X13122395Y49065517D01*
X13186647Y49254800D01*
X13188504Y49260270D01*
X13218846Y49469530D01*
X13220429Y49530000D01*
X13201081Y49740560D01*
X13143686Y49944069D01*
X13050165Y50133710D01*
X12923651Y50303133D01*
X12768381Y50446663D01*
X12739696Y50464762D01*
X12594434Y50556416D01*
X12594433Y50556416D01*
X12589554Y50559495D01*
X12393160Y50637848D01*
X12387503Y50638973D01*
X12387497Y50638975D01*
X12190234Y50678212D01*
X12127324Y50711119D01*
X12092192Y50772814D01*
X12095992Y50843709D01*
X12137517Y50901295D01*
X12196734Y50926487D01*
X12329015Y50945667D01*
X12329019Y50945668D01*
X12334730Y50946496D01*
X12424454Y50976953D01*
X12529483Y51012605D01*
X12529488Y51012607D01*
X12534955Y51014463D01*
X12539998Y51017287D01*
X12714395Y51114954D01*
X12714399Y51114957D01*
X12719442Y51117781D01*
X12882012Y51252988D01*
X13017219Y51415558D01*
X13020043Y51420601D01*
X13020046Y51420605D01*
X13117713Y51595002D01*
X13117714Y51595004D01*
X13120537Y51600045D01*
X13122393Y51605512D01*
X13122395Y51605517D01*
X13186647Y51794800D01*
X13188504Y51800270D01*
X13218846Y52009530D01*
X13220429Y52070000D01*
X13201081Y52280560D01*
X13143686Y52484069D01*
X13050165Y52673710D01*
X12923651Y52843133D01*
X12768381Y52986663D01*
X12739696Y53004762D01*
X12594434Y53096416D01*
X12594433Y53096416D01*
X12589554Y53099495D01*
X12393160Y53177848D01*
X12387503Y53178973D01*
X12387497Y53178975D01*
X12190234Y53218212D01*
X12127324Y53251119D01*
X12092192Y53312814D01*
X12095992Y53383709D01*
X12137517Y53441295D01*
X12196734Y53466487D01*
X12329015Y53485667D01*
X12329019Y53485668D01*
X12334730Y53486496D01*
X12424454Y53516953D01*
X12529483Y53552605D01*
X12529488Y53552607D01*
X12534955Y53554463D01*
X12539998Y53557287D01*
X12714395Y53654954D01*
X12714399Y53654957D01*
X12719442Y53657781D01*
X12882012Y53792988D01*
X13017219Y53955558D01*
X13020043Y53960601D01*
X13020046Y53960605D01*
X13117713Y54135002D01*
X13117714Y54135004D01*
X13120537Y54140045D01*
X13122393Y54145512D01*
X13122395Y54145517D01*
X13186647Y54334800D01*
X13188504Y54340270D01*
X13218846Y54549530D01*
X13220429Y54610000D01*
X13201081Y54820560D01*
X13143686Y55024069D01*
X13050165Y55213710D01*
X12923651Y55383133D01*
X12768381Y55526663D01*
X12735014Y55547716D01*
X12594434Y55636416D01*
X12594433Y55636416D01*
X12589554Y55639495D01*
X12393160Y55717848D01*
X12387503Y55718973D01*
X12387497Y55718975D01*
X12190234Y55758212D01*
X12127324Y55791119D01*
X12092192Y55852814D01*
X12095992Y55923709D01*
X12137517Y55981295D01*
X12196734Y56006487D01*
X12329015Y56025667D01*
X12329019Y56025668D01*
X12334730Y56026496D01*
X12413987Y56053400D01*
X12529483Y56092605D01*
X12529488Y56092607D01*
X12534955Y56094463D01*
X12549294Y56102493D01*
X12714395Y56194954D01*
X12714399Y56194957D01*
X12719442Y56197781D01*
X12882012Y56332988D01*
X13017219Y56495558D01*
X13020043Y56500601D01*
X13020046Y56500605D01*
X13117713Y56675002D01*
X13117714Y56675004D01*
X13120537Y56680045D01*
X13122393Y56685512D01*
X13122395Y56685517D01*
X13186647Y56874800D01*
X13188504Y56880270D01*
X13218846Y57089530D01*
X13220429Y57150000D01*
X13201081Y57360560D01*
X13143686Y57564069D01*
X13132558Y57586636D01*
X13052719Y57748531D01*
X13050165Y57753710D01*
X12923651Y57923133D01*
X12804562Y58033218D01*
X12772622Y58062743D01*
X12772620Y58062745D01*
X12768381Y58066663D01*
X12727549Y58092426D01*
X12594434Y58176416D01*
X12594433Y58176416D01*
X12589554Y58179495D01*
X12393160Y58257848D01*
X12387503Y58258973D01*
X12387497Y58258975D01*
X12190234Y58298212D01*
X12127324Y58331119D01*
X12092192Y58392814D01*
X12095992Y58463709D01*
X12137517Y58521295D01*
X12196734Y58546487D01*
X12329015Y58565667D01*
X12329019Y58565668D01*
X12334730Y58566496D01*
X12413987Y58593400D01*
X12529483Y58632605D01*
X12529488Y58632607D01*
X12534955Y58634463D01*
X12539998Y58637287D01*
X12714395Y58734954D01*
X12714399Y58734957D01*
X12719442Y58737781D01*
X12882012Y58872988D01*
X13017219Y59035558D01*
X13020043Y59040601D01*
X13020046Y59040605D01*
X13117713Y59215002D01*
X13117714Y59215004D01*
X13120537Y59220045D01*
X13122393Y59225512D01*
X13122395Y59225517D01*
X13186647Y59414800D01*
X13188504Y59420270D01*
X13218846Y59629530D01*
X13220429Y59690000D01*
X13201081Y59900560D01*
X13143686Y60104069D01*
X13132553Y60126646D01*
X13052719Y60288531D01*
X13050165Y60293710D01*
X12923651Y60463133D01*
X12768381Y60606663D01*
X12735014Y60627716D01*
X12594434Y60716416D01*
X12594433Y60716416D01*
X12589554Y60719495D01*
X12393160Y60797848D01*
X12387503Y60798973D01*
X12387497Y60798975D01*
X12231916Y60829921D01*
X12169006Y60862828D01*
X12133874Y60924523D01*
X12137674Y60995418D01*
X12179199Y61053004D01*
X12245266Y61078998D01*
X12256497Y61079500D01*
X12898218Y61079500D01*
X12902768Y61080170D01*
X12902771Y61080170D01*
X12957426Y61088216D01*
X12957427Y61088216D01*
X12967112Y61089642D01*
X13061804Y61136133D01*
X13062507Y61136478D01*
X13062509Y61136479D01*
X13071855Y61141068D01*
X13154293Y61223650D01*
X13205536Y61328482D01*
X13215500Y61396782D01*
X13215500Y62733200D01*
X13235502Y62801321D01*
X13289158Y62847814D01*
X13341500Y62859200D01*
X18802500Y62859200D01*
X18870621Y62839198D01*
X18917114Y62785542D01*
X18928500Y62733200D01*
X18928500Y33141510D01*
X18927627Y33126702D01*
X18923892Y33095145D01*
X18925584Y33085883D01*
X18925584Y33085874D01*
X18933863Y33040548D01*
X18934514Y33036640D01*
X18942756Y32981816D01*
X18945716Y32975652D01*
X18946945Y32968923D01*
X18972522Y32919685D01*
X18974279Y32916169D01*
X18994220Y32874641D01*
X18994222Y32874637D01*
X18998298Y32866150D01*
X19002941Y32861128D01*
X19006093Y32855059D01*
X19010174Y32850281D01*
X19045349Y32815106D01*
X19048778Y32811541D01*
X19085395Y32771929D01*
X19091487Y32768390D01*
X19097024Y32763431D01*
X26621214Y25239241D01*
X26655240Y25176929D01*
X26650175Y25106114D01*
X26615198Y25055415D01*
X26466881Y24925345D01*
X26335976Y24759292D01*
X26237523Y24572164D01*
X26174820Y24370227D01*
X26149967Y24160246D01*
X26163796Y23949251D01*
X26165217Y23943655D01*
X26165218Y23943650D01*
X26214424Y23749905D01*
X26215845Y23744310D01*
X26218262Y23739067D01*
X26301951Y23557531D01*
X26304369Y23552286D01*
X26426405Y23379609D01*
X26577865Y23232063D01*
X26582661Y23228858D01*
X26582664Y23228856D01*
X26691240Y23156308D01*
X26753677Y23114589D01*
X26758985Y23112308D01*
X26758986Y23112308D01*
X26942650Y23033400D01*
X26942653Y23033399D01*
X26947953Y23031122D01*
X26953582Y23029848D01*
X26953583Y23029848D01*
X27148550Y22985731D01*
X27148553Y22985731D01*
X27154186Y22984456D01*
X27159958Y22984229D01*
X27165687Y22983475D01*
X27165327Y22980743D01*
X27221604Y22961784D01*
X27265950Y22906341D01*
X27273282Y22835724D01*
X27241271Y22772353D01*
X27180081Y22736349D01*
X27170704Y22734368D01*
X27011650Y22707038D01*
X27011649Y22707038D01*
X27005953Y22706059D01*
X26807575Y22632873D01*
X26802614Y22629921D01*
X26802613Y22629921D01*
X26667577Y22549583D01*
X26625856Y22524762D01*
X26466881Y22385345D01*
X26335976Y22219292D01*
X26333287Y22214181D01*
X26333285Y22214178D01*
X26283400Y22119362D01*
X26237523Y22032164D01*
X26174820Y21830227D01*
X26149967Y21620246D01*
X26163796Y21409251D01*
X26165217Y21403655D01*
X26165218Y21403650D01*
X26214424Y21209905D01*
X26215845Y21204310D01*
X26218262Y21199067D01*
X26264107Y21099621D01*
X26304369Y21012286D01*
X26426405Y20839609D01*
X26577865Y20692063D01*
X26582661Y20688858D01*
X26582664Y20688856D01*
X26691240Y20616308D01*
X26753677Y20574589D01*
X26758985Y20572308D01*
X26758986Y20572308D01*
X26942650Y20493400D01*
X26942653Y20493399D01*
X26947953Y20491122D01*
X26953582Y20489848D01*
X26953583Y20489848D01*
X27148550Y20445731D01*
X27148553Y20445731D01*
X27154186Y20444456D01*
X27159958Y20444229D01*
X27165687Y20443475D01*
X27165327Y20440743D01*
X27221604Y20421784D01*
X27265950Y20366341D01*
X27273282Y20295724D01*
X27241271Y20232353D01*
X27180081Y20196349D01*
X27170704Y20194368D01*
X27011650Y20167038D01*
X27011649Y20167038D01*
X27005953Y20166059D01*
X26807575Y20092873D01*
X26802614Y20089921D01*
X26802613Y20089921D01*
X26667577Y20009583D01*
X26625856Y19984762D01*
X26466881Y19845345D01*
X26335976Y19679292D01*
X26333287Y19674181D01*
X26333285Y19674178D01*
X26283400Y19579362D01*
X26237523Y19492164D01*
X26174820Y19290227D01*
X26149967Y19080246D01*
X26163796Y18869251D01*
X26165217Y18863655D01*
X26165218Y18863650D01*
X26214424Y18669905D01*
X26215845Y18664310D01*
X26218262Y18659067D01*
X26264107Y18559621D01*
X26304369Y18472286D01*
X26426405Y18299609D01*
X26577865Y18152063D01*
X26582661Y18148858D01*
X26582664Y18148856D01*
X26691240Y18076308D01*
X26753677Y18034589D01*
X26758985Y18032308D01*
X26758986Y18032308D01*
X26942650Y17953400D01*
X26942653Y17953399D01*
X26947953Y17951122D01*
X26953582Y17949848D01*
X26953583Y17949848D01*
X27148550Y17905731D01*
X27148553Y17905731D01*
X27154186Y17904456D01*
X27159958Y17904229D01*
X27165687Y17903475D01*
X27165327Y17900743D01*
X27221604Y17881784D01*
X27265950Y17826341D01*
X27273282Y17755724D01*
X27241271Y17692353D01*
X27180081Y17656349D01*
X27170704Y17654368D01*
X27011650Y17627038D01*
X27011649Y17627038D01*
X27005953Y17626059D01*
X26807575Y17552873D01*
X26802614Y17549921D01*
X26802613Y17549921D01*
X26667577Y17469583D01*
X26625856Y17444762D01*
X26466881Y17305345D01*
X26335976Y17139292D01*
X26333287Y17134181D01*
X26333285Y17134178D01*
X26283400Y17039362D01*
X26237523Y16952164D01*
X26174820Y16750227D01*
X26149967Y16540246D01*
X26163796Y16329251D01*
X26165217Y16323655D01*
X26165218Y16323650D01*
X26214424Y16129905D01*
X26215845Y16124310D01*
X26218262Y16119067D01*
X26264107Y16019621D01*
X26304369Y15932286D01*
X26426405Y15759609D01*
X26577865Y15612063D01*
X26582661Y15608858D01*
X26582664Y15608856D01*
X26691240Y15536308D01*
X26753677Y15494589D01*
X26758977Y15492312D01*
X26758988Y15492306D01*
X26815150Y15468177D01*
X26869842Y15422909D01*
X26890010Y15371145D01*
X26891154Y15363534D01*
X26891156Y15363527D01*
X26892556Y15354216D01*
X26895516Y15348052D01*
X26896745Y15341323D01*
X26922322Y15292085D01*
X26924079Y15288569D01*
X26944020Y15247041D01*
X26944022Y15247037D01*
X26948098Y15238550D01*
X26952741Y15233528D01*
X26953535Y15232000D01*
X26953726Y15231397D01*
X26954660Y15229832D01*
X26955888Y15227468D01*
X26955103Y15227060D01*
X26974764Y15165127D01*
X26956251Y15096587D01*
X26903622Y15048935D01*
X26892405Y15044169D01*
X26838224Y15024180D01*
X26807575Y15012873D01*
X26802614Y15009921D01*
X26802613Y15009921D01*
X26667577Y14929583D01*
X26625856Y14904762D01*
X26466881Y14765345D01*
X26335976Y14599292D01*
X26237523Y14412164D01*
X26174820Y14210227D01*
X26149967Y14000246D01*
X26163796Y13789251D01*
X26165217Y13783655D01*
X26165218Y13783650D01*
X26214424Y13589905D01*
X26215845Y13584310D01*
X26218262Y13579067D01*
X26263207Y13481574D01*
X26304369Y13392286D01*
X26426405Y13219609D01*
X26577865Y13072063D01*
X26582661Y13068858D01*
X26582664Y13068856D01*
X26691240Y12996308D01*
X26753677Y12954589D01*
X26758985Y12952308D01*
X26758986Y12952308D01*
X26942650Y12873400D01*
X26942653Y12873399D01*
X26947953Y12871122D01*
X26953582Y12869848D01*
X26953583Y12869848D01*
X27148550Y12825731D01*
X27148553Y12825731D01*
X27154186Y12824456D01*
X27159958Y12824229D01*
X27165687Y12823475D01*
X27165327Y12820743D01*
X27221604Y12801784D01*
X27265950Y12746341D01*
X27273282Y12675724D01*
X27241271Y12612353D01*
X27180081Y12576349D01*
X27170704Y12574368D01*
X27011650Y12547038D01*
X27011649Y12547038D01*
X27005953Y12546059D01*
X26807575Y12472873D01*
X26802614Y12469921D01*
X26802613Y12469921D01*
X26667577Y12389583D01*
X26625856Y12364762D01*
X26466881Y12225345D01*
X26335976Y12059292D01*
X26333287Y12054181D01*
X26333285Y12054178D01*
X26283400Y11959362D01*
X26237523Y11872164D01*
X26174820Y11670227D01*
X26149967Y11460246D01*
X26163796Y11249251D01*
X26165217Y11243655D01*
X26165218Y11243650D01*
X26214424Y11049905D01*
X26215845Y11044310D01*
X26218262Y11039067D01*
X26264107Y10939621D01*
X26304369Y10852286D01*
X26426405Y10679609D01*
X26577865Y10532063D01*
X26582661Y10528858D01*
X26582664Y10528856D01*
X26691240Y10456308D01*
X26753677Y10414589D01*
X26758985Y10412308D01*
X26758986Y10412308D01*
X26942650Y10333400D01*
X26942653Y10333399D01*
X26947953Y10331122D01*
X26953582Y10329848D01*
X26953583Y10329848D01*
X27148550Y10285731D01*
X27148553Y10285731D01*
X27154186Y10284456D01*
X27159958Y10284229D01*
X27165687Y10283475D01*
X27165327Y10280743D01*
X27221604Y10261784D01*
X27265950Y10206341D01*
X27273282Y10135724D01*
X27241271Y10072353D01*
X27180081Y10036349D01*
X27170704Y10034368D01*
X27011650Y10007038D01*
X27011649Y10007038D01*
X27005953Y10006059D01*
X26807575Y9932873D01*
X26802614Y9929921D01*
X26802613Y9929921D01*
X26667577Y9849583D01*
X26625856Y9824762D01*
X26466881Y9685345D01*
X26335976Y9519292D01*
X26333287Y9514181D01*
X26333285Y9514178D01*
X26319792Y9488531D01*
X26237523Y9332164D01*
X26174820Y9130227D01*
X26149967Y8920246D01*
X26163796Y8709251D01*
X26165217Y8703655D01*
X26165218Y8703650D01*
X26214424Y8509905D01*
X26215845Y8504310D01*
X26218262Y8499067D01*
X26264107Y8399621D01*
X26304369Y8312286D01*
X26426405Y8139609D01*
X26577865Y7992063D01*
X26582661Y7988858D01*
X26582664Y7988856D01*
X26715509Y7900092D01*
X26753677Y7874589D01*
X26758985Y7872308D01*
X26758986Y7872308D01*
X26942650Y7793400D01*
X26942653Y7793399D01*
X26947953Y7791122D01*
X26953582Y7789848D01*
X26953583Y7789848D01*
X27148550Y7745731D01*
X27148553Y7745731D01*
X27154186Y7744456D01*
X27159958Y7744229D01*
X27165687Y7743475D01*
X27165327Y7740743D01*
X27221604Y7721784D01*
X27265950Y7666341D01*
X27273282Y7595724D01*
X27241271Y7532353D01*
X27180081Y7496349D01*
X27170704Y7494368D01*
X27011650Y7467038D01*
X27011649Y7467038D01*
X27005953Y7466059D01*
X26807575Y7392873D01*
X26802614Y7389921D01*
X26802613Y7389921D01*
X26785089Y7379495D01*
X26625856Y7284762D01*
X26466881Y7145345D01*
X26335976Y6979292D01*
X26333287Y6974181D01*
X26333285Y6974178D01*
X26319792Y6948531D01*
X26237523Y6792164D01*
X26174820Y6590227D01*
X26149967Y6380246D01*
X26163796Y6169251D01*
X26165217Y6163655D01*
X26165218Y6163650D01*
X26187784Y6074800D01*
X26215845Y5964310D01*
X26304369Y5772286D01*
X26426405Y5599609D01*
X26577865Y5452063D01*
X26582661Y5448858D01*
X26582664Y5448856D01*
X26725936Y5353125D01*
X26753677Y5334589D01*
X26758985Y5332308D01*
X26758986Y5332308D01*
X26942650Y5253400D01*
X26942653Y5253399D01*
X26947953Y5251122D01*
X26953582Y5249848D01*
X26953583Y5249848D01*
X27148550Y5205731D01*
X27148553Y5205731D01*
X27154186Y5204456D01*
X27159958Y5204229D01*
X27165687Y5203475D01*
X27165327Y5200743D01*
X27221604Y5181784D01*
X27265950Y5126341D01*
X27273282Y5055724D01*
X27241271Y4992353D01*
X27180081Y4956349D01*
X27170704Y4954368D01*
X27011650Y4927038D01*
X27011649Y4927038D01*
X27005953Y4926059D01*
X26807575Y4852873D01*
X26802614Y4849921D01*
X26802613Y4849921D01*
X26785089Y4839495D01*
X26625856Y4744762D01*
X26466881Y4605345D01*
X26335976Y4439292D01*
X26333287Y4434181D01*
X26333285Y4434178D01*
X26319792Y4408531D01*
X26237523Y4252164D01*
X26174820Y4050227D01*
X26149967Y3840246D01*
X26163796Y3629251D01*
X26165217Y3623655D01*
X26165218Y3623650D01*
X26187784Y3534800D01*
X26215845Y3424310D01*
X26304369Y3232286D01*
X26426405Y3059609D01*
X26577865Y2912063D01*
X26582661Y2908858D01*
X26582664Y2908856D01*
X26725936Y2813125D01*
X26753677Y2794589D01*
X26758985Y2792308D01*
X26758986Y2792308D01*
X26942650Y2713400D01*
X26942653Y2713399D01*
X26947953Y2711122D01*
X26953582Y2709848D01*
X26953583Y2709848D01*
X27148550Y2665731D01*
X27148553Y2665731D01*
X27154186Y2664456D01*
X27159957Y2664229D01*
X27159959Y2664229D01*
X27221989Y2661792D01*
X27365470Y2656154D01*
X27371179Y2656982D01*
X27371183Y2656982D01*
X27569015Y2685667D01*
X27569019Y2685668D01*
X27574730Y2686496D01*
X27653987Y2713400D01*
X27769483Y2752605D01*
X27769488Y2752607D01*
X27774955Y2754463D01*
X27779998Y2757287D01*
X27954395Y2854954D01*
X27954399Y2854957D01*
X27959442Y2857781D01*
X28122012Y2992988D01*
X28257219Y3155558D01*
X28260043Y3160601D01*
X28260046Y3160605D01*
X28357713Y3335002D01*
X28357714Y3335004D01*
X28360537Y3340045D01*
X28362393Y3345512D01*
X28362395Y3345517D01*
X28426647Y3534800D01*
X28428504Y3540270D01*
X28458846Y3749530D01*
X28460429Y3810000D01*
X28441081Y4020560D01*
X28383686Y4224069D01*
X28372553Y4246646D01*
X28292719Y4408531D01*
X28290165Y4413710D01*
X28163651Y4583133D01*
X28008381Y4726663D01*
X27829554Y4839495D01*
X27633160Y4917848D01*
X27627503Y4918973D01*
X27627497Y4918975D01*
X27430234Y4958212D01*
X27367324Y4991119D01*
X27332192Y5052814D01*
X27335992Y5123709D01*
X27377517Y5181295D01*
X27436734Y5206487D01*
X27569015Y5225667D01*
X27569019Y5225668D01*
X27574730Y5226496D01*
X27653987Y5253400D01*
X27769483Y5292605D01*
X27769488Y5292607D01*
X27774955Y5294463D01*
X27779998Y5297287D01*
X27954395Y5394954D01*
X27954399Y5394957D01*
X27959442Y5397781D01*
X28122012Y5532988D01*
X28257219Y5695558D01*
X28260043Y5700601D01*
X28260046Y5700605D01*
X28357713Y5875002D01*
X28357714Y5875004D01*
X28360537Y5880045D01*
X28362393Y5885512D01*
X28362395Y5885517D01*
X28426647Y6074800D01*
X28428504Y6080270D01*
X28458846Y6289530D01*
X28460429Y6350000D01*
X28441081Y6560560D01*
X28383686Y6764069D01*
X28372553Y6786646D01*
X28292719Y6948531D01*
X28290165Y6953710D01*
X28163651Y7123133D01*
X28008381Y7266663D01*
X27975014Y7287716D01*
X27834434Y7376416D01*
X27834433Y7376416D01*
X27829554Y7379495D01*
X27633160Y7457848D01*
X27627503Y7458973D01*
X27627497Y7458975D01*
X27430234Y7498212D01*
X27367324Y7531119D01*
X27332192Y7592814D01*
X27335992Y7663709D01*
X27377517Y7721295D01*
X27436734Y7746487D01*
X27569015Y7765667D01*
X27569019Y7765668D01*
X27574730Y7766496D01*
X27653987Y7793400D01*
X27769483Y7832605D01*
X27769488Y7832607D01*
X27774955Y7834463D01*
X27779998Y7837287D01*
X27954395Y7934954D01*
X27954399Y7934957D01*
X27959442Y7937781D01*
X28122012Y8072988D01*
X28257219Y8235558D01*
X28260043Y8240601D01*
X28260046Y8240605D01*
X28357713Y8415002D01*
X28357714Y8415004D01*
X28360537Y8420045D01*
X28362393Y8425512D01*
X28362395Y8425517D01*
X28426645Y8614793D01*
X28426645Y8614795D01*
X28428504Y8620270D01*
X28429098Y8624366D01*
X28464184Y8685473D01*
X28527211Y8718155D01*
X28597902Y8711574D01*
X28653814Y8667820D01*
X28673474Y8625505D01*
X28707090Y8493143D01*
X28708511Y8487548D01*
X28710928Y8482306D01*
X28710928Y8482305D01*
X28749046Y8399621D01*
X28800883Y8287179D01*
X28928222Y8106998D01*
X29086264Y7953039D01*
X29091060Y7949834D01*
X29091063Y7949832D01*
X29175261Y7893573D01*
X29269717Y7830460D01*
X29275020Y7828182D01*
X29275023Y7828180D01*
X29465169Y7746487D01*
X29472436Y7743365D01*
X29552088Y7725342D01*
X29681995Y7695946D01*
X29682001Y7695945D01*
X29687632Y7694671D01*
X29693403Y7694444D01*
X29693405Y7694444D01*
X29761211Y7691780D01*
X29908098Y7686009D01*
X30017275Y7701839D01*
X30120738Y7716840D01*
X30120743Y7716841D01*
X30126452Y7717669D01*
X30131916Y7719524D01*
X30131921Y7719525D01*
X30329907Y7786732D01*
X30329912Y7786734D01*
X30335379Y7788590D01*
X30527884Y7896398D01*
X30574243Y7934954D01*
X30693086Y8033796D01*
X30697518Y8037482D01*
X30730739Y8077426D01*
X30834908Y8202674D01*
X30834910Y8202677D01*
X30838602Y8207116D01*
X30924478Y8360459D01*
X30943586Y8394578D01*
X30943587Y8394580D01*
X30946410Y8399621D01*
X30948266Y8405088D01*
X30948268Y8405093D01*
X31015475Y8603079D01*
X31015476Y8603084D01*
X31017331Y8608548D01*
X31018159Y8614257D01*
X31018160Y8614262D01*
X31048458Y8823228D01*
X31048991Y8826902D01*
X31050643Y8890000D01*
X31030454Y9109711D01*
X30970565Y9322064D01*
X30872980Y9519947D01*
X30766058Y9663133D01*
X30744420Y9692109D01*
X30744420Y9692110D01*
X30740967Y9696733D01*
X30626286Y9802743D01*
X30583189Y9842582D01*
X30583186Y9842584D01*
X30578949Y9846501D01*
X30392350Y9964236D01*
X30357359Y9978196D01*
X30338209Y9985836D01*
X30282350Y10029657D01*
X30267256Y10063462D01*
X30266131Y10063027D01*
X30265000Y10065950D01*
X30263326Y10072263D01*
X30261932Y10075385D01*
X30261075Y10079221D01*
X30258844Y10086472D01*
X30257444Y10095784D01*
X30239065Y10134059D01*
X30235147Y10143113D01*
X30230762Y10154449D01*
X30224840Y10225197D01*
X30258108Y10287917D01*
X30307773Y10319219D01*
X30335379Y10328590D01*
X30527884Y10436398D01*
X30574243Y10474954D01*
X30693086Y10573796D01*
X30697518Y10577482D01*
X30759256Y10651713D01*
X30834908Y10742674D01*
X30834910Y10742677D01*
X30838602Y10747116D01*
X30946410Y10939621D01*
X30948266Y10945088D01*
X30948268Y10945093D01*
X31015475Y11143079D01*
X31015476Y11143084D01*
X31017331Y11148548D01*
X31018159Y11154257D01*
X31018160Y11154262D01*
X31048458Y11363228D01*
X31048991Y11366902D01*
X31050643Y11430000D01*
X31030454Y11649711D01*
X30970565Y11862064D01*
X30872980Y12059947D01*
X30806196Y12149382D01*
X30744420Y12232109D01*
X30744420Y12232110D01*
X30740967Y12236733D01*
X30643586Y12326751D01*
X30583189Y12382582D01*
X30583186Y12382584D01*
X30578949Y12386501D01*
X30392350Y12504236D01*
X30338209Y12525836D01*
X30282350Y12569657D01*
X30267256Y12603462D01*
X30266131Y12603027D01*
X30265000Y12605950D01*
X30263326Y12612263D01*
X30261932Y12615385D01*
X30261075Y12619221D01*
X30258844Y12626472D01*
X30257444Y12635784D01*
X30239065Y12674059D01*
X30235147Y12683113D01*
X30230762Y12694449D01*
X30224840Y12765197D01*
X30258108Y12827917D01*
X30307773Y12859219D01*
X30335379Y12868590D01*
X30527884Y12976398D01*
X30533934Y12981429D01*
X30693086Y13113796D01*
X30697518Y13117482D01*
X30744976Y13174544D01*
X30834908Y13282674D01*
X30834910Y13282677D01*
X30838602Y13287116D01*
X30946410Y13479621D01*
X30948266Y13485088D01*
X30948268Y13485093D01*
X31015475Y13683079D01*
X31015476Y13683084D01*
X31017331Y13688548D01*
X31018159Y13694257D01*
X31018160Y13694262D01*
X31048458Y13903228D01*
X31048991Y13906902D01*
X31050643Y13970000D01*
X31030454Y14189711D01*
X30970565Y14402064D01*
X30872980Y14599947D01*
X30740967Y14776733D01*
X30602466Y14904762D01*
X30583189Y14922582D01*
X30583186Y14922584D01*
X30578949Y14926501D01*
X30392350Y15044236D01*
X30189955Y15124983D01*
X30134096Y15168804D01*
X30110795Y15235868D01*
X30127451Y15304883D01*
X30178775Y15353937D01*
X30196144Y15361326D01*
X30329907Y15406732D01*
X30329912Y15406734D01*
X30335379Y15408590D01*
X30350313Y15416953D01*
X30441779Y15468177D01*
X30527884Y15516398D01*
X30577642Y15557781D01*
X30693086Y15653796D01*
X30697518Y15657482D01*
X30764034Y15737458D01*
X30834908Y15822674D01*
X30834910Y15822677D01*
X30838602Y15827116D01*
X30946410Y16019621D01*
X30948266Y16025088D01*
X30948268Y16025093D01*
X31015475Y16223079D01*
X31015476Y16223084D01*
X31017331Y16228548D01*
X31018159Y16234257D01*
X31018160Y16234262D01*
X31048458Y16443228D01*
X31048991Y16446902D01*
X31050643Y16510000D01*
X31030454Y16729711D01*
X30970565Y16942064D01*
X30872980Y17139947D01*
X30766058Y17283133D01*
X30744420Y17312109D01*
X30744420Y17312110D01*
X30740967Y17316733D01*
X30626286Y17422743D01*
X30583189Y17462582D01*
X30583186Y17462584D01*
X30578949Y17466501D01*
X30392350Y17584236D01*
X30189955Y17664983D01*
X30134096Y17708804D01*
X30110795Y17775868D01*
X30127451Y17844883D01*
X30178775Y17893937D01*
X30196144Y17901326D01*
X30329907Y17946732D01*
X30329912Y17946734D01*
X30335379Y17948590D01*
X30350313Y17956953D01*
X30494673Y18037799D01*
X30527884Y18056398D01*
X30574243Y18094954D01*
X30693086Y18193796D01*
X30697518Y18197482D01*
X30764034Y18277458D01*
X30834908Y18362674D01*
X30834910Y18362677D01*
X30838602Y18367116D01*
X30946410Y18559621D01*
X30948266Y18565088D01*
X30948268Y18565093D01*
X31015475Y18763079D01*
X31015476Y18763084D01*
X31017331Y18768548D01*
X31018159Y18774257D01*
X31018160Y18774262D01*
X31048458Y18983228D01*
X31048991Y18986902D01*
X31050643Y19050000D01*
X31030454Y19269711D01*
X30970565Y19482064D01*
X30872980Y19679947D01*
X30766058Y19823133D01*
X30744420Y19852109D01*
X30744420Y19852110D01*
X30740967Y19856733D01*
X30626286Y19962743D01*
X30583189Y20002582D01*
X30583186Y20002584D01*
X30578949Y20006501D01*
X30392350Y20124236D01*
X30189955Y20204983D01*
X30134096Y20248804D01*
X30110795Y20315868D01*
X30127451Y20384883D01*
X30178775Y20433937D01*
X30196144Y20441326D01*
X30329907Y20486732D01*
X30329912Y20486734D01*
X30335379Y20488590D01*
X30350313Y20496953D01*
X30494673Y20577799D01*
X30527884Y20596398D01*
X30574243Y20634954D01*
X30693086Y20733796D01*
X30697518Y20737482D01*
X30764034Y20817458D01*
X30834908Y20902674D01*
X30834910Y20902677D01*
X30838602Y20907116D01*
X30946410Y21099621D01*
X30948266Y21105088D01*
X30948268Y21105093D01*
X31015475Y21303079D01*
X31015476Y21303084D01*
X31017331Y21308548D01*
X31018159Y21314257D01*
X31018160Y21314262D01*
X31048458Y21523228D01*
X31048991Y21526902D01*
X31050643Y21590000D01*
X31030454Y21809711D01*
X30970565Y22022064D01*
X30872980Y22219947D01*
X30766058Y22363133D01*
X30744420Y22392109D01*
X30744420Y22392110D01*
X30740967Y22396733D01*
X30626286Y22502743D01*
X30583189Y22542582D01*
X30583186Y22542584D01*
X30578949Y22546501D01*
X30392350Y22664236D01*
X30189955Y22744983D01*
X30134096Y22788804D01*
X30110795Y22855868D01*
X30127451Y22924883D01*
X30178775Y22973937D01*
X30196144Y22981326D01*
X30329907Y23026732D01*
X30329912Y23026734D01*
X30335379Y23028590D01*
X30350313Y23036953D01*
X30494673Y23117799D01*
X30527884Y23136398D01*
X30574243Y23174954D01*
X30693086Y23273796D01*
X30697518Y23277482D01*
X30764034Y23357458D01*
X30834908Y23442674D01*
X30834910Y23442677D01*
X30838602Y23447116D01*
X30946410Y23639621D01*
X30948266Y23645088D01*
X30948268Y23645093D01*
X31015475Y23843079D01*
X31015476Y23843084D01*
X31017331Y23848548D01*
X31018159Y23854257D01*
X31018160Y23854262D01*
X31048458Y24063228D01*
X31048991Y24066902D01*
X31050643Y24130000D01*
X31030454Y24349711D01*
X30970565Y24562064D01*
X30872980Y24759947D01*
X30740967Y24936733D01*
X30628469Y25040725D01*
X30583189Y25082582D01*
X30583186Y25082584D01*
X30578949Y25086501D01*
X30392350Y25204236D01*
X30189955Y25284983D01*
X30134096Y25328804D01*
X30110795Y25395868D01*
X30127451Y25464883D01*
X30178775Y25513937D01*
X30196144Y25521326D01*
X30329907Y25566732D01*
X30329912Y25566734D01*
X30335379Y25568590D01*
X30527884Y25676398D01*
X30577642Y25717781D01*
X30693086Y25813796D01*
X30697518Y25817482D01*
X30755334Y25886998D01*
X30834908Y25982674D01*
X30834910Y25982677D01*
X30838602Y25987116D01*
X30946410Y26179621D01*
X30948266Y26185088D01*
X30948268Y26185093D01*
X31015475Y26383079D01*
X31015476Y26383084D01*
X31017331Y26388548D01*
X31018159Y26394257D01*
X31018160Y26394262D01*
X31048458Y26603228D01*
X31048991Y26606902D01*
X31050643Y26670000D01*
X31030454Y26889711D01*
X30970565Y27102064D01*
X30872980Y27299947D01*
X30740967Y27476733D01*
X30628469Y27580725D01*
X30583189Y27622582D01*
X30583186Y27622584D01*
X30578949Y27626501D01*
X30393702Y27743383D01*
X30393700Y27743385D01*
X30392350Y27744236D01*
X30392517Y27744501D01*
X30343071Y27791198D01*
X30326002Y27860112D01*
X30348901Y27927314D01*
X30396454Y27967871D01*
X30538095Y28037261D01*
X30546945Y28042536D01*
X30720328Y28166208D01*
X30728200Y28172861D01*
X30879052Y28323188D01*
X30885730Y28331035D01*
X31010003Y28503980D01*
X31015313Y28512817D01*
X31109670Y28703733D01*
X31113469Y28713328D01*
X31175377Y28917090D01*
X31177555Y28927163D01*
X31178986Y28938038D01*
X31176775Y28952222D01*
X31163617Y28956000D01*
X29013600Y28956000D01*
X28945479Y28976002D01*
X28898986Y29029658D01*
X28887600Y29082000D01*
X28887600Y29338000D01*
X28907602Y29406121D01*
X28961258Y29452614D01*
X29013600Y29464000D01*
X31163344Y29464000D01*
X31176875Y29467973D01*
X31178180Y29477053D01*
X31136214Y29644125D01*
X31132894Y29653876D01*
X31047972Y29849186D01*
X31043105Y29858261D01*
X30927426Y30037074D01*
X30921136Y30045243D01*
X30777806Y30202760D01*
X30770273Y30209785D01*
X30603139Y30341778D01*
X30594552Y30347483D01*
X30408115Y30450402D01*
X30399687Y30454190D01*
X30345752Y30500359D01*
X30325340Y30568358D01*
X30344932Y30636598D01*
X30389771Y30679051D01*
X30453229Y30714589D01*
X30527884Y30756398D01*
X30553595Y30777781D01*
X30693086Y30893796D01*
X30697518Y30897482D01*
X30755334Y30966998D01*
X30834908Y31062674D01*
X30834910Y31062677D01*
X30838602Y31067116D01*
X30946410Y31259621D01*
X30948266Y31265088D01*
X30948268Y31265093D01*
X31015475Y31463079D01*
X31015476Y31463084D01*
X31017331Y31468548D01*
X31018159Y31474257D01*
X31018160Y31474262D01*
X31046472Y31669530D01*
X31048991Y31686902D01*
X31050643Y31750000D01*
X31030454Y31969711D01*
X30970565Y32182064D01*
X30872980Y32379947D01*
X30740967Y32556733D01*
X30624102Y32664762D01*
X30583189Y32702582D01*
X30583186Y32702584D01*
X30578949Y32706501D01*
X30392350Y32824236D01*
X30355406Y32838975D01*
X30338209Y32845836D01*
X30282350Y32889657D01*
X30267256Y32923462D01*
X30266131Y32923027D01*
X30265000Y32925950D01*
X30263326Y32932263D01*
X30261932Y32935385D01*
X30261075Y32939221D01*
X30258844Y32946472D01*
X30257444Y32955784D01*
X30239065Y32994059D01*
X30235147Y33003113D01*
X30230762Y33014449D01*
X30224840Y33085197D01*
X30258108Y33147917D01*
X30307773Y33179219D01*
X30335379Y33188590D01*
X30527884Y33296398D01*
X30577642Y33337781D01*
X30693086Y33433796D01*
X30697518Y33437482D01*
X30723402Y33468603D01*
X30834908Y33602674D01*
X30834910Y33602677D01*
X30838602Y33607116D01*
X30946410Y33799621D01*
X30948266Y33805088D01*
X30948268Y33805093D01*
X31015475Y34003079D01*
X31015476Y34003084D01*
X31017331Y34008548D01*
X31018159Y34014257D01*
X31018160Y34014262D01*
X31048458Y34223228D01*
X31048991Y34226902D01*
X31050643Y34290000D01*
X31030454Y34509711D01*
X30970565Y34722064D01*
X30888230Y34889023D01*
X30875535Y34914766D01*
X30872980Y34919947D01*
X30806237Y35009327D01*
X30744420Y35092109D01*
X30744420Y35092110D01*
X30740967Y35096733D01*
X30631966Y35197493D01*
X30583189Y35242582D01*
X30583186Y35242584D01*
X30578949Y35246501D01*
X30392350Y35364236D01*
X30189955Y35444983D01*
X30134096Y35488804D01*
X30110795Y35555868D01*
X30127451Y35624883D01*
X30178775Y35673937D01*
X30196144Y35681326D01*
X30329907Y35726732D01*
X30329912Y35726734D01*
X30335379Y35728590D01*
X30340426Y35731416D01*
X30484868Y35812308D01*
X30527884Y35836398D01*
X30532331Y35840096D01*
X30693086Y35973796D01*
X30697518Y35977482D01*
X30759256Y36051713D01*
X30834908Y36142674D01*
X30834910Y36142677D01*
X30838602Y36147116D01*
X30946410Y36339621D01*
X30948266Y36345088D01*
X30948268Y36345093D01*
X31015475Y36543079D01*
X31015476Y36543084D01*
X31017331Y36548548D01*
X31018159Y36554257D01*
X31018160Y36554262D01*
X31048458Y36763228D01*
X31048991Y36766902D01*
X31050643Y36830000D01*
X31030454Y37049711D01*
X31019818Y37087426D01*
X30980840Y37225632D01*
X30970565Y37262064D01*
X30872980Y37459947D01*
X30850963Y37489432D01*
X30744420Y37632109D01*
X30744420Y37632110D01*
X30740967Y37636733D01*
X30613859Y37754230D01*
X30577415Y37815157D01*
X30579696Y37886117D01*
X30610294Y37935849D01*
X31202522Y38528077D01*
X31213612Y38537932D01*
X31231166Y38551770D01*
X31231170Y38551774D01*
X31238565Y38557604D01*
X31270157Y38603315D01*
X31272390Y38606438D01*
X31305362Y38651079D01*
X31307627Y38657529D01*
X31311517Y38663157D01*
X31314355Y38672132D01*
X31314358Y38672137D01*
X31328244Y38716046D01*
X31329497Y38719803D01*
X31344757Y38763255D01*
X31344758Y38763258D01*
X31347877Y38772141D01*
X31348146Y38778977D01*
X31350207Y38785495D01*
X31350700Y38791759D01*
X31350700Y38841520D01*
X31350797Y38846466D01*
X31352544Y38890939D01*
X31352914Y38900352D01*
X31351108Y38907163D01*
X31350700Y38914578D01*
X31350700Y58126289D01*
X31351573Y58141100D01*
X31354201Y58163303D01*
X31355308Y58172654D01*
X31345336Y58227255D01*
X31344687Y58231153D01*
X31337844Y58276672D01*
X31336444Y58285984D01*
X31333484Y58292149D01*
X31332255Y58298876D01*
X31306697Y58348078D01*
X31304930Y58351615D01*
X31284981Y58393158D01*
X31284977Y58393164D01*
X31280902Y58401650D01*
X31276258Y58406674D01*
X31273107Y58412740D01*
X31269027Y58417518D01*
X31233851Y58452694D01*
X31230421Y58456260D01*
X31200197Y58488956D01*
X31200198Y58488956D01*
X31193805Y58495871D01*
X31187713Y58499410D01*
X31182176Y58504369D01*
X28271374Y61415171D01*
X28237348Y61477483D01*
X28242413Y61548298D01*
X28255539Y61573538D01*
X28257219Y61575558D01*
X28308878Y61667802D01*
X28357713Y61755002D01*
X28357714Y61755004D01*
X28360537Y61760045D01*
X28362393Y61765512D01*
X28362395Y61765517D01*
X28426647Y61954800D01*
X28428504Y61960270D01*
X28458846Y62169530D01*
X28460429Y62230000D01*
X28441081Y62440560D01*
X28383686Y62644069D01*
X28381130Y62649252D01*
X28381127Y62649260D01*
X28358535Y62695071D01*
X28346344Y62765013D01*
X28373903Y62830443D01*
X28432460Y62870586D01*
X28471540Y62876800D01*
X28728665Y62876800D01*
X28796786Y62856798D01*
X28817760Y62839895D01*
X29711177Y61946478D01*
X29721032Y61935388D01*
X29734870Y61917834D01*
X29734874Y61917830D01*
X29740704Y61910435D01*
X29748451Y61905081D01*
X29748453Y61905079D01*
X29786338Y61878896D01*
X29789550Y61876601D01*
X29834178Y61843638D01*
X29840629Y61841372D01*
X29846257Y61837483D01*
X29849106Y61836582D01*
X29898299Y61788643D01*
X29914500Y61726835D01*
X29914500Y61341782D01*
X29915170Y61337232D01*
X29915170Y61337229D01*
X29923216Y61282574D01*
X29924642Y61272888D01*
X29976068Y61168145D01*
X29996183Y61148065D01*
X30050385Y61093958D01*
X30058650Y61085707D01*
X30163482Y61034464D01*
X30183820Y61031497D01*
X30227256Y61025160D01*
X30227260Y61025160D01*
X30231782Y61024500D01*
X31998218Y61024500D01*
X32002768Y61025170D01*
X32002771Y61025170D01*
X32057426Y61033216D01*
X32057427Y61033216D01*
X32067112Y61034642D01*
X32117738Y61059498D01*
X32162507Y61081478D01*
X32162509Y61081479D01*
X32171855Y61086068D01*
X32254293Y61168650D01*
X32305536Y61273482D01*
X32315500Y61341782D01*
X32315500Y63108218D01*
X32305358Y63177112D01*
X32253932Y63281855D01*
X32171350Y63364293D01*
X32066518Y63415536D01*
X32036027Y63419984D01*
X32002744Y63424840D01*
X32002740Y63424840D01*
X31998218Y63425500D01*
X31662103Y63425500D01*
X31593982Y63445502D01*
X31547489Y63499158D01*
X31537385Y63569432D01*
X31566879Y63634012D01*
X31605791Y63662855D01*
X31605379Y63663590D01*
X31659957Y63694155D01*
X31797884Y63771398D01*
X31805420Y63777665D01*
X31963086Y63908796D01*
X31967518Y63912482D01*
X32108602Y64082116D01*
X32216410Y64274621D01*
X32218266Y64280088D01*
X32218268Y64280093D01*
X32285475Y64478079D01*
X32285476Y64478084D01*
X32287331Y64483548D01*
X32288159Y64489257D01*
X32288160Y64489262D01*
X32311799Y64652300D01*
X32318991Y64701902D01*
X32320643Y64765000D01*
X32300454Y64984711D01*
X32240565Y65197064D01*
X32142980Y65394947D01*
X32010967Y65571733D01*
X31848949Y65721501D01*
X31662350Y65839236D01*
X31457421Y65920994D01*
X31451761Y65922120D01*
X31451757Y65922121D01*
X31246691Y65962911D01*
X31246688Y65962911D01*
X31241024Y65964038D01*
X31235249Y65964114D01*
X31235245Y65964114D01*
X31124504Y65965563D01*
X31020406Y65966926D01*
X31014709Y65965947D01*
X31014708Y65965947D01*
X30808654Y65930541D01*
X30808653Y65930541D01*
X30802957Y65929562D01*
X30595957Y65853196D01*
X30406341Y65740386D01*
X30240457Y65594910D01*
X30103863Y65421640D01*
X30001131Y65226380D01*
X29935703Y65015667D01*
X29909770Y64796560D01*
X29910427Y64786543D01*
X29894925Y64717261D01*
X29844427Y64667357D01*
X29784697Y64652300D01*
X20327703Y64652300D01*
X20312893Y64653173D01*
X20290698Y64655800D01*
X20281345Y64656907D01*
X20272081Y64655215D01*
X20272078Y64655215D01*
X20226778Y64646942D01*
X20222875Y64646292D01*
X20177325Y64639444D01*
X20177322Y64639443D01*
X20168016Y64638044D01*
X20161851Y64635084D01*
X20155123Y64633855D01*
X20105885Y64608278D01*
X20102369Y64606521D01*
X20060841Y64586580D01*
X20060837Y64586578D01*
X20052350Y64582502D01*
X20047328Y64577859D01*
X20041259Y64574707D01*
X20036481Y64570626D01*
X20001306Y64535451D01*
X19997741Y64532022D01*
X19958129Y64495405D01*
X19954590Y64489313D01*
X19949631Y64483776D01*
X19215360Y63749505D01*
X19153048Y63715479D01*
X19126265Y63712600D01*
X9978710Y63712600D01*
X9963902Y63713473D01*
X9932345Y63717208D01*
X9923083Y63715516D01*
X9923074Y63715516D01*
X9877748Y63707237D01*
X9873839Y63706586D01*
X9819016Y63698344D01*
X9812852Y63695384D01*
X9806123Y63694155D01*
X9756885Y63668578D01*
X9753369Y63666821D01*
X9711841Y63646880D01*
X9711837Y63646878D01*
X9703350Y63642802D01*
X9698328Y63638159D01*
X9692259Y63635007D01*
X9687481Y63630926D01*
X9652306Y63595751D01*
X9648741Y63592322D01*
X9609129Y63555705D01*
X9605590Y63549613D01*
X9600631Y63544076D01*
X4322834Y58266279D01*
X4260522Y58232253D01*
X4187050Y58238343D01*
X4138160Y58257848D01*
X4132503Y58258973D01*
X4132497Y58258975D01*
X3936442Y58297972D01*
X3936440Y58297972D01*
X3930775Y58299099D01*
X3925000Y58299175D01*
X3924996Y58299175D01*
X3818976Y58300563D01*
X3719346Y58301867D01*
X3713649Y58300888D01*
X3713648Y58300888D01*
X3516650Y58267038D01*
X3516649Y58267038D01*
X3510953Y58266059D01*
X3312575Y58192873D01*
X3307614Y58189921D01*
X3307613Y58189921D01*
X3142750Y58091838D01*
X3130856Y58084762D01*
X2971881Y57945345D01*
X2840976Y57779292D01*
X2838287Y57774181D01*
X2838285Y57774178D01*
X2824792Y57748531D01*
X2742523Y57592164D01*
X2679820Y57390227D01*
X2654967Y57180246D01*
X500000Y57180246D01*
X500000Y66374000D01*
X520002Y66442121D01*
X573658Y66488614D01*
X626000Y66500000D01*
X33374000Y66500000D01*
X33442121Y66479998D01*
G37*
G04 #@! TD.AperFunction*
G04 #@! TA.AperFunction,Conductor*
G36*
X26551869Y63778898D02*
G01*
X26598362Y63725242D01*
X26608466Y63654968D01*
X26578972Y63590388D01*
X26569279Y63580377D01*
X26561629Y63573305D01*
X26558090Y63567213D01*
X26553131Y63561676D01*
X25982278Y62990823D01*
X25971188Y62980968D01*
X25953634Y62967130D01*
X25953630Y62967126D01*
X25946235Y62961296D01*
X25914643Y62915585D01*
X25912410Y62912462D01*
X25879438Y62867821D01*
X25877173Y62861371D01*
X25873283Y62855743D01*
X25870445Y62846768D01*
X25870442Y62846763D01*
X25856556Y62802854D01*
X25855303Y62799097D01*
X25840043Y62755645D01*
X25840042Y62755642D01*
X25836923Y62746759D01*
X25836654Y62739923D01*
X25834593Y62733405D01*
X25834100Y62727141D01*
X25834100Y62677380D01*
X25834003Y62672434D01*
X25831886Y62618548D01*
X25833692Y62611737D01*
X25834100Y62604322D01*
X25834100Y44015910D01*
X25833227Y44001102D01*
X25829492Y43969545D01*
X25831184Y43960283D01*
X25831184Y43960274D01*
X25839463Y43914948D01*
X25840114Y43911040D01*
X25848356Y43856216D01*
X25851316Y43850052D01*
X25852545Y43843323D01*
X25878122Y43794085D01*
X25879879Y43790569D01*
X25899820Y43749041D01*
X25899822Y43749037D01*
X25903898Y43740550D01*
X25908541Y43735528D01*
X25911693Y43729459D01*
X25915774Y43724681D01*
X25950948Y43689507D01*
X25954378Y43685941D01*
X25990995Y43646329D01*
X25997087Y43642790D01*
X26002619Y43637836D01*
X26364785Y43275671D01*
X26621214Y43019242D01*
X26655239Y42956929D01*
X26650175Y42886114D01*
X26615198Y42835415D01*
X26466881Y42705345D01*
X26335976Y42539292D01*
X26333287Y42534181D01*
X26333285Y42534178D01*
X26319792Y42508531D01*
X26237523Y42352164D01*
X26174820Y42150227D01*
X26149967Y41940246D01*
X26163796Y41729251D01*
X26165217Y41723655D01*
X26165218Y41723650D01*
X26187784Y41634800D01*
X26215845Y41524310D01*
X26304369Y41332286D01*
X26426405Y41159609D01*
X26430539Y41155582D01*
X26569763Y41019956D01*
X26577865Y41012063D01*
X26582661Y41008858D01*
X26582664Y41008856D01*
X26688162Y40938365D01*
X26753677Y40894589D01*
X26758985Y40892308D01*
X26758986Y40892308D01*
X26802037Y40873812D01*
X26856730Y40828545D01*
X26878300Y40758044D01*
X26878300Y40525521D01*
X26858298Y40457400D01*
X26807905Y40412995D01*
X26807575Y40412873D01*
X26625856Y40304762D01*
X26466881Y40165345D01*
X26335976Y39999292D01*
X26333287Y39994181D01*
X26333285Y39994178D01*
X26319792Y39968531D01*
X26237523Y39812164D01*
X26174820Y39610227D01*
X26149967Y39400246D01*
X26163796Y39189251D01*
X26165217Y39183655D01*
X26165218Y39183650D01*
X26195659Y39063790D01*
X26215845Y38984310D01*
X26218262Y38979067D01*
X26258889Y38890939D01*
X26304369Y38792286D01*
X26426405Y38619609D01*
X26430539Y38615582D01*
X26569763Y38479956D01*
X26577865Y38472063D01*
X26582661Y38468858D01*
X26582664Y38468856D01*
X26721038Y38376398D01*
X26753677Y38354589D01*
X26758985Y38352308D01*
X26758986Y38352308D01*
X26942650Y38273400D01*
X26942653Y38273399D01*
X26947953Y38271122D01*
X26953582Y38269848D01*
X26953583Y38269848D01*
X27148550Y38225731D01*
X27148553Y38225731D01*
X27154186Y38224456D01*
X27159958Y38224229D01*
X27165687Y38223475D01*
X27165327Y38220743D01*
X27221604Y38201784D01*
X27265950Y38146341D01*
X27273282Y38075724D01*
X27241271Y38012353D01*
X27180081Y37976349D01*
X27170704Y37974368D01*
X27011650Y37947038D01*
X27011649Y37947038D01*
X27005953Y37946059D01*
X26807575Y37872873D01*
X26802614Y37869921D01*
X26802613Y37869921D01*
X26640132Y37773255D01*
X26625856Y37764762D01*
X26466881Y37625345D01*
X26335976Y37459292D01*
X26333287Y37454181D01*
X26333285Y37454178D01*
X26304325Y37399133D01*
X26237523Y37272164D01*
X26174820Y37070227D01*
X26149967Y36860246D01*
X26163796Y36649251D01*
X26165217Y36643655D01*
X26165218Y36643650D01*
X26214424Y36449905D01*
X26215845Y36444310D01*
X26218262Y36439067D01*
X26264107Y36339621D01*
X26304369Y36252286D01*
X26426405Y36079609D01*
X26430539Y36075582D01*
X26569763Y35939956D01*
X26577865Y35932063D01*
X26582661Y35928858D01*
X26582664Y35928856D01*
X26682726Y35861997D01*
X26753677Y35814589D01*
X26758985Y35812308D01*
X26758986Y35812308D01*
X26942650Y35733400D01*
X26942653Y35733399D01*
X26947953Y35731122D01*
X26953582Y35729848D01*
X26953583Y35729848D01*
X27148550Y35685731D01*
X27148553Y35685731D01*
X27154186Y35684456D01*
X27159958Y35684229D01*
X27165687Y35683475D01*
X27165327Y35680743D01*
X27221604Y35661784D01*
X27265950Y35606341D01*
X27273282Y35535724D01*
X27241271Y35472353D01*
X27180081Y35436349D01*
X27170704Y35434368D01*
X27011650Y35407038D01*
X27011649Y35407038D01*
X27005953Y35406059D01*
X26807575Y35332873D01*
X26802614Y35329921D01*
X26802613Y35329921D01*
X26667577Y35249583D01*
X26625856Y35224762D01*
X26466881Y35085345D01*
X26335976Y34919292D01*
X26333287Y34914181D01*
X26333285Y34914178D01*
X26307854Y34865841D01*
X26237523Y34732164D01*
X26174820Y34530227D01*
X26149967Y34320246D01*
X26163796Y34109251D01*
X26165217Y34103655D01*
X26165218Y34103650D01*
X26214424Y33909905D01*
X26215845Y33904310D01*
X26218262Y33899067D01*
X26264107Y33799621D01*
X26304369Y33712286D01*
X26426405Y33539609D01*
X26430539Y33535582D01*
X26569763Y33399956D01*
X26577865Y33392063D01*
X26582661Y33388858D01*
X26582664Y33388856D01*
X26659322Y33337635D01*
X26753677Y33274589D01*
X26758985Y33272308D01*
X26758986Y33272308D01*
X26942650Y33193400D01*
X26942653Y33193399D01*
X26947953Y33191122D01*
X26953582Y33189848D01*
X26953583Y33189848D01*
X27148550Y33145731D01*
X27148553Y33145731D01*
X27154186Y33144456D01*
X27159958Y33144229D01*
X27165687Y33143475D01*
X27165327Y33140743D01*
X27221604Y33121784D01*
X27265950Y33066341D01*
X27273282Y32995724D01*
X27241271Y32932353D01*
X27180081Y32896349D01*
X27170704Y32894368D01*
X27011650Y32867038D01*
X27011649Y32867038D01*
X27005953Y32866059D01*
X26807575Y32792873D01*
X26802614Y32789921D01*
X26802613Y32789921D01*
X26667577Y32709583D01*
X26625856Y32684762D01*
X26466881Y32545345D01*
X26335976Y32379292D01*
X26333287Y32374181D01*
X26333285Y32374178D01*
X26325453Y32359292D01*
X26237523Y32192164D01*
X26174820Y31990227D01*
X26149967Y31780246D01*
X26163796Y31569251D01*
X26165217Y31563655D01*
X26165218Y31563650D01*
X26191474Y31460270D01*
X26215845Y31364310D01*
X26218262Y31359067D01*
X26266432Y31254578D01*
X26304369Y31172286D01*
X26426405Y30999609D01*
X26446936Y30979609D01*
X26569763Y30859956D01*
X26577865Y30852063D01*
X26582661Y30848858D01*
X26582664Y30848856D01*
X26715509Y30760092D01*
X26753677Y30734589D01*
X26758985Y30732308D01*
X26758986Y30732308D01*
X26875940Y30682061D01*
X26930634Y30636793D01*
X26952171Y30569142D01*
X26933714Y30500586D01*
X26881123Y30452892D01*
X26866318Y30447380D01*
X26866413Y30447119D01*
X26850947Y30441490D01*
X26653489Y30349414D01*
X26643993Y30343931D01*
X26465533Y30218972D01*
X26457125Y30211916D01*
X26303084Y30057875D01*
X26296028Y30049467D01*
X26171069Y29871007D01*
X26165586Y29861511D01*
X26073510Y29664053D01*
X26069764Y29653761D01*
X26023606Y29481497D01*
X26023942Y29467401D01*
X26031884Y29464000D01*
X27908200Y29464000D01*
X27976321Y29443998D01*
X28022814Y29390342D01*
X28034200Y29338000D01*
X28034200Y29082000D01*
X28014198Y29013879D01*
X27960542Y28967386D01*
X27908200Y28956000D01*
X26037033Y28956000D01*
X26023502Y28952027D01*
X26022273Y28943478D01*
X26069764Y28766239D01*
X26073510Y28755947D01*
X26165586Y28558489D01*
X26171069Y28548993D01*
X26296028Y28370533D01*
X26303084Y28362125D01*
X26457125Y28208084D01*
X26465533Y28201028D01*
X26643993Y28076069D01*
X26653489Y28070586D01*
X26850947Y27978510D01*
X26866413Y27972881D01*
X26865733Y27971012D01*
X26918897Y27938613D01*
X26949924Y27874755D01*
X26941501Y27804260D01*
X26896303Y27749509D01*
X26869282Y27735638D01*
X26807575Y27712873D01*
X26802614Y27709921D01*
X26802613Y27709921D01*
X26667577Y27629583D01*
X26625856Y27604762D01*
X26466881Y27465345D01*
X26335976Y27299292D01*
X26237523Y27112164D01*
X26235810Y27106646D01*
X26232504Y27096000D01*
X26193201Y27036875D01*
X26128172Y27008384D01*
X26058062Y27019574D01*
X26023076Y27044269D01*
X19818805Y33248540D01*
X19784779Y33310852D01*
X19781900Y33337635D01*
X19781900Y63056965D01*
X19801902Y63125086D01*
X19818805Y63146060D01*
X20434740Y63761995D01*
X20497052Y63796021D01*
X20523835Y63798900D01*
X26483748Y63798900D01*
X26551869Y63778898D01*
G37*
G04 #@! TD.AperFunction*
M02*
